<?xml version="1.0" encoding="UTF-8" standalone="no"?>
<!-- Created with Inkscape (http://www.inkscape.org/) -->

<svg
   xmlns:dc="http://purl.org/dc/elements/1.1/"
   xmlns:cc="http://creativecommons.org/ns#"
   xmlns:rdf="http://www.w3.org/1999/02/22-rdf-syntax-ns#"
   xmlns:svg="http://www.w3.org/2000/svg"
   xmlns="http://www.w3.org/2000/svg"
   xmlns:sodipodi="http://sodipodi.sourceforge.net/DTD/sodipodi-0.dtd"
   xmlns:inkscape="http://www.inkscape.org/namespaces/inkscape"
   id="svg2"
   version="1.1"
   inkscape:version="0.91 r13725"
   xml:space="preserve"
   width="990"
   height="765"
   viewBox="0 0 990 765"
   sodipodi:docname="border_detect.svg"><metadata
     id="metadata8"><rdf:RDF><cc:Work
         rdf:about=""><dc:format>image/svg+xml</dc:format><dc:type
           rdf:resource="http://purl.org/dc/dcmitype/StillImage" /><dc:title></dc:title></cc:Work></rdf:RDF></metadata><defs
     id="defs6"><clipPath
       clipPathUnits="userSpaceOnUse"
       id="clipPath94"><path
         d="m 66,544 689,0 0,-135.051 -689,0 L 66,544 Z"
         id="path96"
         inkscape:connector-curvature="0" /></clipPath><clipPath
       clipPathUnits="userSpaceOnUse"
       id="clipPath106"><path
         d="m 705,563.531 76.551,0 0,-29.531 -76.551,0 0,29.531 z"
         id="path108"
         inkscape:connector-curvature="0" /></clipPath><clipPath
       clipPathUnits="userSpaceOnUse"
       id="clipPath238"><path
         d="m 38.969,302 742.031,0 0,-2 -742.031,0 0,2 z"
         id="path240"
         inkscape:connector-curvature="0" /></clipPath><clipPath
       clipPathUnits="userSpaceOnUse"
       id="clipPath368"><path
         d="m 120,193.551 9,0 0,-154.582 -9,0 0,154.582 z"
         id="path370"
         inkscape:connector-curvature="0" /></clipPath><clipPath
       clipPathUnits="userSpaceOnUse"
       id="clipPath378"><path
         d="m 147,193.551 6,0 0,-154.582 -6,0 0,154.582 z"
         id="path380"
         inkscape:connector-curvature="0" /></clipPath><clipPath
       clipPathUnits="userSpaceOnUse"
       id="clipPath394"><path
         d="m 38.969,117 742.031,0 0,-2 -742.031,0 0,2 z"
         id="path396"
         inkscape:connector-curvature="0" /></clipPath><clipPath
       clipPathUnits="userSpaceOnUse"
       id="clipPath406"><path
         d="M 38.969,96 781,96 l 0,-2 -742.031,0 0,2 z"
         id="path408"
         inkscape:connector-curvature="0" /></clipPath><clipPath
       clipPathUnits="userSpaceOnUse"
       id="clipPath418"><path
         d="m 38.969,139 742.031,0 0,-2 -742.031,0 0,2 z"
         id="path420"
         inkscape:connector-curvature="0" /></clipPath></defs><sodipodi:namedview
     pagecolor="#ffffff"
     bordercolor="#666666"
     borderopacity="1"
     objecttolerance="10"
     gridtolerance="10"
     guidetolerance="10"
     inkscape:pageopacity="0"
     inkscape:pageshadow="2"
     inkscape:window-width="1855"
     inkscape:window-height="1056"
     id="namedview4"
     showgrid="false"
     inkscape:zoom="1.745121"
     inkscape:cx="499.14432"
     inkscape:cy="294.96648"
     inkscape:window-x="65"
     inkscape:window-y="24"
     inkscape:window-maximized="1"
     inkscape:current-layer="g10" /><g
     id="g10"
     inkscape:groupmode="layer"
     inkscape:label="border_detect"
     transform="matrix(1.25,0,0,-1.25,0,764.99998)"><path
       d="m 66.469,434.85198 1.109,4.796 1.113,0.961 1.11,-1.918 1.109,3.84 1.102,6.731 1.109,-8.653 1.109,10.571 1.11,4.8 2.219,0 1.113,1.918 1.109,-7.679 1.11,19.211 1.109,-3.84 1.102,1.922 1.109,3.84 1.109,6.718 1.11,-6.718 1.109,8.648 1.109,-0.961 1.114,3.84 1.109,0.961 1.109,-2.879 1.11,-2.891 1.101,2.891 2.219,5.758 1.11,0 1.109,0.961 1.109,2.879 1.114,-6.719 1.109,2.879 1.109,2.883 1.102,7.687 1.109,-5.769 1.11,2.89 1.109,-3.851 1.109,6.73 1.11,-48.027 1.109,47.066 1.113,-1.918 1.11,3.84 1.109,-34.578 1.102,30.738 1.109,1.918 1.109,-2.887 1.11,-1.921 1.109,-5.758 1.11,10.566 1.113,-0.957 1.109,-2.891 1.11,49.95 1.109,-5.758 1.102,3.84 1.109,0 1.109,-4.801 1.11,-16.332 1.109,18.25 1.109,-10.559 1.114,27.852 1.109,-14.41 1.109,5.769 1.11,5.758 1.101,-3.84 1.11,-0.961 1.109,-0.957 1.11,4.797 1.109,0 1.109,5.762 1.114,0.961 1.109,-34.582 1.109,14.41 1.11,8.652 1.101,2.879 1.11,-6.73 1.109,0.968 1.109,-29.777 1.11,26.891 1.109,-50.91 1.113,27.859 1.11,3.84 1.109,-1.922 1.11,-6.719 1.101,10.559 1.109,-6.719 1.11,-24.02 1.109,29.782 1.11,-1.922 1.113,5.762 1.109,-4.801 1.11,-0.961 1.109,-20.168 1.109,23.047 1.102,-0.957 1.109,7.687 1.11,-0.961 1.109,-4.808 1.109,4.808 1.114,-12.488 1.109,14.41 1.109,-9.609 1.11,5.769 1.109,0.961 1.102,1.918 1.109,-8.648 1.11,-1.922 1.109,4.801 1.109,8.648 1.114,-5.758 1.109,-5.769 1.109,7.687 1.11,0.961 1.109,-2.879 1.102,-3.851 1.109,-1.918 1.109,0 1.11,-0.961 1.109,-3.84 1.113,6.719 1.11,0.961 1.109,-21.129 1.11,22.09 1.109,0.961 1.101,-3.84 1.11,0.957 1.109,0.961 1.11,-1.918 1.113,-0.961 1.109,-6.723 1.11,9.602 1.109,-31.7 1.109,24.981 1.102,-2.883 1.109,-19.207 1.11,10.559 1.109,0.961 1.109,3.847 1.114,-2.886 1.109,-12.481 1.109,14.399 1.11,-4.801 1.109,7.691 1.102,-6.73 1.109,-22.09 1.11,7.68 1.109,11.531 1.109,8.648 1.114,-1.929 1.109,-12.481 1.109,10.563 1.11,0.957 1.109,1.929 1.102,-15.367 1.109,9.598 1.109,-12.489 1.11,10.571 1.109,-3.84 1.113,6.719 1.11,-6.719 1.109,-0.961 1.11,10.559 2.21,0 1.11,-5.758 2.219,0 1.113,-16.332 1.109,16.332 1.11,4.801 1.109,-6.723 1.109,0.961 1.11,3.84 1.101,-10.559 1.11,-8.652 1.109,14.41 1.109,0 1.114,8.641 1.109,-15.36 1.109,13.442 1.11,1.918 1.109,-14.399 1.11,2.879 1.101,13.449 1.11,-23.058 1.109,-10.571 1.109,22.102 1.114,6.719 1.109,-8.641 1.109,5.762 1.11,-10.571 1.109,10.571 1.109,1.918 1.102,-11.52 1.109,5.762 1.11,2.879 1.109,-4.801 1.113,0.961 1.11,-2.883 1.109,6.723 1.11,-1.922 1.109,0.961 1.109,-17.289 1.102,19.211 1.109,-0.961 1.11,0.961 1.113,-1.922 1.109,0 1.11,-10.57 1.109,-8.641 1.109,11.531 1.11,0.961 1.109,-4.812 1.102,1.921 1.109,2.891 1.109,4.801 1.114,-2.883 1.109,-1.918 1.109,2.879 1.11,3.84 1.109,0 1.11,-1.918 1.101,1.918 1.11,7.68 1.109,-7.68 1.109,8.648 1.114,-11.527 1.109,13.449 1.109,-8.648 1.11,8.648 1.109,-4.808 1.109,2.886 1.102,-11.527 1.109,5.758 1.11,-1.918 1.109,5.758 1.113,-0.957 1.11,1.918 1.109,-0.961 1.11,-9.598 1.109,6.719 1.109,0.961 1.102,0.961 1.109,1.918 1.11,-23.051 1.113,15.371 1.109,5.762 1.11,-23.051 1.109,2.879 1.109,16.332 1.11,3.84 1.109,-10.563 1.102,-1.918 1.109,15.367 1.109,-12.488 1.114,6.719 1.109,4.801 1.109,-3.84 1.11,-0.961 1.109,-0.957 1.11,-7.684 1.113,7.684 1.098,2.879 1.109,-16.332 1.109,9.613 1.114,1.918 1.109,9.609 1.109,-1.929 1.11,-6.719 1.109,1.918 1.109,-3.84 1.114,6.723 1.097,-0.961 1.11,0 1.109,-0.961 1.113,-1.918 1.11,-10.571 1.109,0.969 1.11,10.559 1.109,-0.957 1.109,1.918 1.114,-4.801 1.097,-3.84 1.11,3.84 1.113,0 1.109,-3.84 1.11,2.883 1.109,-3.844 1.109,-0.957 1.11,4.801 1.109,-2.883 1.113,-24.019 1.098,25.941 1.109,-1.922 1.114,-5.769 1.109,10.57 1.109,-7.68 1.11,3.84 1.109,-7.691 1.11,8.652 1.113,-8.652 1.109,-0.957 1.098,3.839 1.109,-0.961 1.114,0.961 1.109,-2.882 1.109,-0.957 1.11,2.878 1.109,-18.25 1.109,-7.679 1.114,16.328 1.097,0 1.11,-12.488 1.109,19.211 1.113,-3.84 1.11,2.879 1.109,0 1.11,-3.84 1.109,9.609 1.109,-4.808 1.114,-0.961 1.097,8.648 1.11,-2.879 1.113,-15.371 1.109,8.641 1.11,-10.571 1.109,13.45 1.109,-0.957 1.11,4.808 1.109,0.961 1.113,-1.93 1.098,0.969 1.109,-3.851 1.114,2.882 1.109,-5.761 1.109,3.84 1.11,7.691 1.109,-14.41 1.11,16.328 1.113,-5.758 1.109,3.84 1.098,1.918 1.109,-7.688 1.114,0 1.109,0.969 1.109,1.918 1.11,-2.887 1.109,7.688 1.109,-3.84 1.114,7.68 1.109,-5.758 1.098,8.641 1.109,-10.563 1.113,11.52 1.11,-1.918 1.109,0 1.11,-1.922 1.109,0.961 1.109,-6.719 1.114,4.801 1.109,-10.571 1.098,1.93 1.113,15.367 1.109,0.961 1.11,-6.73 1.109,0.961 1.109,-3.84 1.11,8.648 1.109,0.961 1.113,1.922 1.11,-4.812 1.097,4.812 1.114,-0.961 1.109,-1.922 2.219,0 1.109,0.961 1.11,-5.769 1.113,3.84 1.109,5.769 1.11,-7.687 1.097,7.687 1.114,-5.769 1.109,5.769 1.109,0.961 1.11,-5.762 1.109,4.801 1.109,-4.801 1.114,3.84 1.109,-3.84 1.109,-16.328 1.098,21.129 1.113,1.922 1.11,-7.691 1.109,-6.719 1.11,11.527 1.109,4.801 1.109,-22.09 1.114,19.211 1.109,-2.879 1.109,-5.769 1.102,9.609 1.109,0.961 1.11,-9.613 1.109,-3.84 1.109,0.961 1.11,3.84 1.109,1.929 1.113,2.879 1.11,-15.367 1.097,13.449 2.223,0 1.109,-0.961 1.11,4.801 1.109,-2.879 1.11,-1.922 1.113,-17.289 1.109,20.168 1.11,0 1.097,0.961 1.114,-3.84 1.109,-1.929 1.109,1.929 1.11,2.879 1.109,-4.808 1.109,-0.961 1.114,0 1.109,-2.879 1.109,-12.489 1.098,14.411 1.113,-3.84 1.11,1.918 1.109,2.879 1.11,-4.797 1.109,-0.961 1.109,2.879 1.114,-0.961 1.109,-2.879 1.109,0 1.102,-24.02 1.109,6.731 1.11,13.449 1.109,0 1.109,-1.922 1.11,-0.957 1.109,3.84 1.113,-2.883 1.11,-3.848 1.109,10.571 1.102,0.961 1.109,-3.84 1.109,-2.883 1.11,-5.769 1.109,4.808 1.11,-47.066 1.113,47.066 1.109,-9.609 1.11,8.652 1.109,-3.851 1.102,11.531 2.218,0 1.11,0.961 1.109,-0.961 1.109,-13.449 1.114,17.289 1.109,-0.961 1.109,-2.879 1.11,1.918 1.101,-15.367 1.11,12.488 2.219,1.922 1.109,0.957 1.109,-0.957 1.114,0.957 1.109,2.883 1.109,-10.563 1.11,3.84 1.101,0 1.11,-4.801 1.109,4.801 1.109,-5.758 1.11,3.84 1.109,-4.801 1.113,0 1.11,-0.969 1.109,3.848 1.11,-5.769 1.101,3.851 1.109,-5.769 1.11,7.687 1.109,-2.879 1.11,-6.73 1.113,2.879 1.109,0.961 1.11,1.921 1.109,0 1.102,-0.961 1.109,-2.878 1.109,-1.922 1.11,-0.961 1.109,4.801 1.109,-1.918 1.114,0 1.109,-1.922 1.109,4.8 1.11,1.93 1.101,-0.969 1.11,1.93 1.109,1.918 1.11,-2.879 1.109,-3.851 1.109,1.921 1.114,1.93 1.109,-2.89 1.109,2.89 1.11,0 1.101,-0.969 1.11,-4.8 1.109,0 1.109,-26.903 1.11,29.782 1.109,1.921 1.113,-12.48 1.11,15.367 1.109,-6.726 1.11,-7.68 1.101,14.406 1.109,-1.918 1.11,5.762 1.109,-6.731 1.11,0 1.113,1.93 1.109,-0.961 1.11,-6.73 1.109,2.879 1.109,-1.918 1.102,-5.762 1.109,2.883 1.11,-5.762 1.109,4.801 1.109,-6.731 1.114,3.852 1.109,0.957 1.109,1.922 1.11,-0.961 1.109,0 1.102,-14.41 1.109,17.289 1.11,-22.09 1.109,16.332 1.109,-13.449 1.114,8.636 1.109,-10.558 1.109,-8.649 1.11,18.25 1.109,-0.961 1.102,-3.839 1.109,3.839 1.109,-1.921 1.11,0 1.109,-3.84 1.113,0.961 1.11,-0.961 1.109,1.922 2.219,-1.922 1.101,-1.918 1.11,3.84 1.109,-2.879 1.11,-4.801 1.113,0.961 1.109,0.957 1.11,-6.731 1.109,3.84 1.109,1.934 1.11,0.957 1.101,-4.809 1.11,1.918 1.109,-0.957 1.109,-0.961 1.114,0.961 1.109,2.891 1.109,0 1.11,-3.852 1.109,-4.8 2.211,0 1.11,4.8 1.109,0.961 1.109,0.957 1.114,-0.957 1.109,0.957 1.109,-1.918 1.11,0 1.109,-0.961 1.102,-1.918 1.109,-15.371 1.109,6.731 1.11,0.961 1.109,-3.852 1.113,1.93 1.11,-1.93 1.109,-4.801 1.11,1.922 1.109,-0.961 1.101,-1.922 1.11,1.922 1.109,-4.8 1.11,3.839 1.113,-2.879 1.109,0.961 1.11,-1.921 1.109,-3.84 1.109,3.84 1.11,-0.961 1.101,-1.918 1.11,-1.922 1.109,-17.289"
       style="fill:none;stroke:#000000;stroke-width:0.75;stroke-linecap:round;stroke-linejoin:round;stroke-miterlimit:10;stroke-dasharray:none;stroke-opacity:1"
       id="path16"
       inkscape:connector-curvature="0" /><path
       d="m 65.359,408.94898 665.391,0"
       style="fill:none;stroke:#000000;stroke-width:0.75;stroke-linecap:round;stroke-linejoin:round;stroke-miterlimit:10;stroke-dasharray:none;stroke-opacity:1"
       id="path20"
       inkscape:connector-curvature="0" /><path
       d="m 65.359,408.94898 0,-4.75"
       style="fill:none;stroke:#000000;stroke-width:0.75;stroke-linecap:round;stroke-linejoin:round;stroke-miterlimit:10;stroke-dasharray:none;stroke-opacity:1"
       id="path24"
       inkscape:connector-curvature="0" /><path
       d="m 176.262,408.94898 0,-4.75"
       style="fill:none;stroke:#000000;stroke-width:0.75;stroke-linecap:round;stroke-linejoin:round;stroke-miterlimit:10;stroke-dasharray:none;stroke-opacity:1"
       id="path28"
       inkscape:connector-curvature="0" /><path
       d="m 287.16,408.94898 0,-4.75"
       style="fill:none;stroke:#000000;stroke-width:0.75;stroke-linecap:round;stroke-linejoin:round;stroke-miterlimit:10;stroke-dasharray:none;stroke-opacity:1"
       id="path32"
       inkscape:connector-curvature="0" /><path
       d="m 398.059,408.94898 0,-4.75"
       style="fill:none;stroke:#000000;stroke-width:0.75;stroke-linecap:round;stroke-linejoin:round;stroke-miterlimit:10;stroke-dasharray:none;stroke-opacity:1"
       id="path36"
       inkscape:connector-curvature="0" /><path
       d="m 508.961,408.94898 0,-4.75"
       style="fill:none;stroke:#000000;stroke-width:0.75;stroke-linecap:round;stroke-linejoin:round;stroke-miterlimit:10;stroke-dasharray:none;stroke-opacity:1"
       id="path40"
       inkscape:connector-curvature="0" /><path
       d="m 619.852,408.94898 0,-4.75"
       style="fill:none;stroke:#000000;stroke-width:0.75;stroke-linecap:round;stroke-linejoin:round;stroke-miterlimit:10;stroke-dasharray:none;stroke-opacity:1"
       id="path44"
       inkscape:connector-curvature="0" /><path
       d="m 730.75,408.94898 0,-4.75"
       style="fill:none;stroke:#000000;stroke-width:0.75;stroke-linecap:round;stroke-linejoin:round;stroke-miterlimit:10;stroke-dasharray:none;stroke-opacity:1"
       id="path48"
       inkscape:connector-curvature="0" /><text
       id="text50"
       style="font-variant:normal;font-weight:normal;font-size:8px;font-family:TeXGyreHeros;-inkscape-font-specification:TeXGyreHeros-Regular;writing-mode:lr-tb;fill:#000000;fill-opacity:1;fill-rule:nonzero;stroke:none"
       transform="scale(1,-1)"
       x="63.139999"
       y="-391.84"><tspan
         id="tspan52"
         sodipodi:role="line"
         y="-391.84"
         x="63.139999 169.59 174.03801 178.48601 280.49002 284.93802 289.38602 391.39001 395.83801 400.28601 502.28003 506.72803 511.17603 613.17999 617.62799 622.07599 724.08002 728.52802 732.97601">0100200300400500600</tspan></text>
<path
       d="m 38.969,417.48798 0,141.903"
       style="fill:none;stroke:#000000;stroke-width:0.75;stroke-linecap:round;stroke-linejoin:round;stroke-miterlimit:10;stroke-dasharray:none;stroke-opacity:1"
       id="path56"
       inkscape:connector-curvature="0" /><path
       d="m 38.969,417.48798 -4.758,0"
       style="fill:none;stroke:#000000;stroke-width:0.75;stroke-linecap:round;stroke-linejoin:round;stroke-miterlimit:10;stroke-dasharray:none;stroke-opacity:1"
       id="path60"
       inkscape:connector-curvature="0" /><path
       d="m 38.969,452.96898 -4.758,0"
       style="fill:none;stroke:#000000;stroke-width:0.75;stroke-linecap:round;stroke-linejoin:round;stroke-miterlimit:10;stroke-dasharray:none;stroke-opacity:1"
       id="path64"
       inkscape:connector-curvature="0" /><path
       d="m 38.969,488.44098 -4.758,0"
       style="fill:none;stroke:#000000;stroke-width:0.75;stroke-linecap:round;stroke-linejoin:round;stroke-miterlimit:10;stroke-dasharray:none;stroke-opacity:1"
       id="path68"
       inkscape:connector-curvature="0" /><path
       d="m 38.969,523.92198 -4.758,0"
       style="fill:none;stroke:#000000;stroke-width:0.75;stroke-linecap:round;stroke-linejoin:round;stroke-miterlimit:10;stroke-dasharray:none;stroke-opacity:1"
       id="path72"
       inkscape:connector-curvature="0" /><path
       d="m 38.969,559.39098 -4.758,0"
       style="fill:none;stroke:#000000;stroke-width:0.75;stroke-linecap:round;stroke-linejoin:round;stroke-miterlimit:10;stroke-dasharray:none;stroke-opacity:1"
       id="path76"
       inkscape:connector-curvature="0" /><text
       id="text78"
       style="font-variant:normal;font-weight:normal;font-size:8px;font-family:TeXGyreHeros;-inkscape-font-specification:TeXGyreHeros-Regular;writing-mode:lr-tb;fill:#000000;fill-opacity:1;fill-rule:nonzero;stroke:none"
       transform="matrix(0,1,1,0,0,0)"
       x="405.25998"
       y="27.560001"><tspan
         id="tspan80"
         sodipodi:role="line"
         y="27.560001"
         x="405.25998 409.70798 411.93198 416.38 420.828 425.276 440.73199 445.17999 447.40399 451.85199 456.29999 460.74799 476.21201 480.66 482.884 487.332 491.78 496.228 511.68399 516.13202 518.35602 522.80402 527.25201 531.70001 547.164 551.612 553.836 558.284 562.73199 567.17999">0.00050.00100.00150.00200.0025</tspan></text>
<path
       d="m 38.969,563.53098 742.582,0 0,-154.582 -742.582,0 0,154.582 z"
       style="fill:none;stroke:#000000;stroke-width:0.75;stroke-linecap:round;stroke-linejoin:round;stroke-miterlimit:10;stroke-dasharray:none;stroke-opacity:1"
       id="path84"
       inkscape:connector-curvature="0" /><text
       id="text86"
       style="font-variant:normal;font-weight:normal;font-size:8px;font-family:TeXGyreHeros;-inkscape-font-specification:TeXGyreHeros-Regular;writing-mode:lr-tb;fill:#000000;fill-opacity:1;fill-rule:nonzero;stroke:none"
       transform="matrix(0,1,1,0,0,0)"
       x="459.66"
       y="8.5500021"><tspan
         id="tspan88"
         sodipodi:role="line"
         y="8.5500021"
         x="459.66 462.32401 466.772 468.548 472.996 475.22 476.996 480.79599 485.24399 487.46799 491.91599 496.36398 500.81198 504.81198 506.58798 508.81198">relative density</tspan></text>
<path
       inkscape:connector-curvature="0"
       id="path100"
       style="fill:none;stroke:#bebebe;stroke-width:0.75;stroke-linecap:round;stroke-linejoin:round;stroke-miterlimit:10;stroke-dasharray:none;stroke-opacity:1"
       d="m 66.469,447.99998 1.109,5.281 1.113,3.848 1.11,-1.141 1.109,6.352 1.102,4.23 1.109,-5.91 1.109,9.692 1.11,1.878 1.109,0.168 1.11,2.34 1.113,3.512 1.109,-6.289 1.11,14.238 1.109,-0.5 1.102,0.481 1.109,2.5 1.109,0.922 1.11,2.257 1.109,-0.339 1.109,1.859 1.114,2.543 1.109,-0.66 1.109,0.168 1.11,-1.11 1.101,-0.582 1.11,-0.039 1.109,3.551 1.11,2.309 1.109,-0.039 1.109,0.05 1.114,-1.73 1.109,-1.09 1.109,-0.809 1.102,12.489 1.109,-7.559 1.11,5.668 1.109,-4.82 1.109,7.75 1.11,-55.008 1.109,51.539 1.113,-1.738 1.11,6.968 1.109,-36.531 1.102,31.102 1.109,2.508 1.109,1.652 1.11,0.98 1.109,-10.089 1.11,7.707 1.113,2.621 1.109,-0.289 1.11,7.757 1.109,-0.418 1.102,2.899 1.109,0.512 1.109,4.3 1.11,-34.222 1.109,25.211 1.109,-0.399 1.114,13.86 1.109,-10.43 1.109,9.5 1.11,-3.992 1.101,3.051 1.11,2.011 1.109,-0.429 1.11,1.589 1.109,-0.441 1.109,1.02 1.114,8.218 1.109,-27.609 1.109,9.512 1.11,12.3 1.101,5.969 1.11,-6.469 1.109,1.528 1.109,-11.129 1.11,18.18 1.109,-43.899 1.113,31.359 1.11,4.372 1.109,-3.75 1.11,-5.641 1.101,7.309 1.109,-4.391 1.11,-28.598 1.109,33.739 1.11,3.101 1.113,-2.601 1.109,-1.309 1.11,2.277 1.109,-27.91 1.109,28.332 1.102,-0.308 1.109,5.449 1.11,-4.211 1.109,-1.07 1.109,4.66 1.114,-9.469 1.109,5.16 1.109,-5.242 1.11,4.062 1.109,3.368 1.102,-5.297 1.109,-2.012 1.11,0.352 1.109,5.296 1.109,3.872 1.114,-0.008 1.109,-9.473 1.109,10.68 1.11,-2.141 1.109,-2.109 1.102,3.14 1.109,-0.058 1.109,-1.442 1.11,-2.711 1.109,4.801 1.113,-4.929 1.11,2.332 1.109,-13.293 1.11,13.91 1.109,1.211 1.101,-2.219 1.11,-0.781 1.109,-0.321 1.11,2.051 1.113,-4.531 1.109,-3.32 1.11,10.871 1.109,-22.45 1.109,14.989 1.102,-7.547 1.109,-9 1.11,12.609 1.109,-3.551 1.109,1.52 1.114,0.672 1.109,-3.981 1.109,0.329 1.11,-6.61 1.109,12.09 1.102,1.801 1.109,-38.43 1.11,18.399 1.109,4.519 1.109,7.711 1.114,3.738 1.109,-23.109 1.109,21.121 1.11,-0.531 1.109,-0.699 1.102,-15.942 1.109,17.113 1.109,-30.742 1.11,27.422 1.109,-7.301 1.113,1.782 1.11,0.039 1.109,0.48 1.11,3.301 1.109,1.519 1.101,0.868 1.11,-2.27 1.109,-1.988 1.11,-2.403 1.113,-11.628 1.109,12.101 1.11,1.008 1.109,-5.199 1.109,2.148 1.11,5.481 1.101,-9.039 1.11,-2.801 1.109,6.832 1.109,2.301 1.114,-0.59 1.109,-5.973 1.109,6.77 1.11,2.632 1.109,-2.453 1.11,-10.59 1.101,12.102 1.11,-11.801 1.109,-5.179 1.109,14.968 1.114,1.641 1.109,-3.399 1.109,4.211 1.11,-2.793 1.109,-1.457 1.109,7.387 1.102,-5.437 1.109,-2.411 1.11,6.25 1.109,-8.121 1.113,5.52 1.11,-3.481 1.109,4.942 1.11,-3.649 1.109,3.321 1.109,-32.543 1.102,30.621 1.109,-2.961 1.11,2.562 1.113,-1.871 1.109,-0.992 1.11,-1.449 1.109,-4.848 1.109,3.969 1.11,1.82 1.109,-3.441 1.102,2.082 1.109,-0.813 1.109,1.731 1.114,0.34 1.109,-1.367 1.109,0.429 1.11,6.707 1.109,-4.25 1.11,-3.668 1.101,1.239 1.11,5.582 1.109,-9.813 1.109,12.801 1.114,-5.809 1.109,7.071 1.109,-7.672 1.11,5.14 1.109,-1.718 1.109,5 1.102,-24.782 1.109,18.801 1.11,-1.851 1.109,6.293 1.113,-0.864 1.11,0.321 1.109,0.839 1.11,-0.5 1.109,-4.429 1.109,-0.028 1.102,3.938 1.109,-1.899 1.11,-27.3 1.113,14.718 1.109,13.723 1.11,-29.601 1.109,8.691 1.109,12.25 1.11,8.16 1.109,-7.402 1.102,-2.469 1.109,12.781 1.109,-15.582 1.114,9.071 1.109,2.339 1.109,-4.039 1.11,1.09 1.109,-1.512 1.11,-11.289 1.113,16.602 1.098,0.437 1.109,-21.378 1.109,7.07 1.114,5.531 1.109,4.391 1.109,3.777 1.11,-3.328 1.109,-1.902 1.109,-4.079 1.114,6.481 1.097,-4.422 1.11,-7.219 1.109,10.75 1.113,-2.41 1.11,-9.07 1.109,-5.461 1.11,14.031 1.109,1.211 1.109,3.168 1.114,-6.801 1.097,-8.019 1.11,6.179 1.113,4.704 1.109,-10 1.11,4.136 1.109,4.133 1.109,-3.121 1.11,-0.301 1.109,-1.949 1.113,-15.391 1.098,17.981 1.109,-1.57 1.114,-4.61 1.109,4.871 1.109,-1.801 1.11,-2.16 1.109,-1.922 1.11,5.672 1.113,-10.582 1.109,8.274 1.098,-2.953 1.109,-1.5 1.114,-0.27 1.109,2.582 1.109,1.149 1.11,-3.641 1.109,-11.348 1.109,-8.101 1.114,18.211 1.097,-3.532 1.11,-12.468 1.109,17.629 1.113,-1.09 1.11,-1.11 1.109,-0.179 1.11,-19.871 1.109,21.96 1.109,-2.089 1.114,-6.039 1.097,4.628 1.11,2.899 1.113,-10.391 1.109,8.211 1.11,-6.847 1.109,2.769 1.109,1.399 1.11,2.71 1.109,-2.25 1.113,1.918 1.098,4.34 1.109,-12.207 1.114,10.34 1.109,-8.293 1.109,4.293 1.11,3.449 1.109,-8.25 1.11,7.719 1.113,-4.059 1.109,2.25 1.098,3.04 1.109,-2.809 1.114,-2.699 1.109,-3.203 1.109,7.953 1.11,-1.84 1.109,3.976 1.109,-2.007 1.114,3.597 1.109,-8.566 1.098,9.609 1.109,-12.371 1.113,11.879 1.11,-1.769 1.109,1.21 1.11,-4.992 1.109,2.383 1.109,-7.012 1.114,8.282 1.109,-9.063 1.098,0.223 1.113,5.429 1.109,4.52 1.11,-5.5 1.109,-7.969 1.109,2.649 1.11,10.261 1.109,-3.05 1.113,-0.282 1.11,-0.73 1.097,-0.27 1.114,-0.289 1.109,2.051 1.109,-2.019 1.11,4.847 1.109,-0.969 1.11,-4.421 1.113,4.781 1.109,1.82 1.11,-4.89 1.097,5.652 1.114,-3.141 1.109,1.528 1.109,1.191 1.11,-3.27 1.109,3.649 1.109,-0.879 1.114,-1.871 1.109,-1.649 1.109,-10.621 1.098,15.18 1.113,-0.898 1.11,-0.481 1.109,-11.691 1.11,11.34 1.109,3.902 1.109,-14.531 1.114,16 1.109,-7.739 1.109,-1.55 1.102,6.589 1.109,1.692 1.11,-5.981 1.109,-8.312 1.109,-3.899 1.11,13.879 1.109,-3.859 1.113,2.148 1.11,-14.097 1.097,12.519 1.114,0.192 1.109,1.097 1.109,-7.179 1.11,7.011 1.109,-4.812 1.11,-1.879 1.113,-5.59 1.109,12.512 1.11,-1.602 1.097,-0.09 1.114,-2.039 1.109,-0.402 1.109,0.383 1.11,3.18 1.109,-3.25 1.109,0.949 1.114,-3.36 1.109,-2.871 1.109,-9.761 1.098,12.41 1.113,-3.117 1.11,0.218 1.109,2.211 1.11,-8.992 1.109,5.621 1.109,0.379 1.114,-2.141 1.109,-2.449 1.109,0.16 1.102,-11.648 1.109,-5.051 1.11,15.481 1.109,-1.18 1.109,0.258 1.11,0.043 1.109,-2.602 1.113,-2.531 1.11,3.562 1.109,4.36 1.102,-0.09 1.109,-2.602 1.109,-1.82 1.11,-6.379 1.109,7.77 1.11,-30.61 1.113,30.211 1.109,-7.621 1.11,6.918 1.109,-7.137 1.102,8.981 1.109,1.226 1.109,-2.66 1.11,1.473 1.109,-3.063 1.109,-4.457 1.114,8.309 1.109,0.23 1.109,-2.511 1.11,0.383 1.101,-9.821 1.11,7.598 1.109,-0.399 1.11,1.649 1.109,0.519 1.109,-1.859 1.114,-1.199 1.109,4.43 1.109,-8.11 1.11,8.828 1.101,-3.238 1.11,0.18 1.109,-5.7 1.109,-0.531 1.11,1.11 1.109,-2.129 1.113,0.101 1.11,-2.23 1.109,0.711 1.11,1.168 1.101,-0.59 1.109,-1.102 1.11,2.66 1.109,-3.226 1.11,-0.961 1.113,3.629 1.109,-0.879 1.11,0.418 1.109,0.012 1.102,-1.243 1.109,-4.699 1.109,0.731 1.11,1.39 1.109,1.289 1.109,-0.507 1.114,-2.012 1.109,1.469 1.109,1.48 1.11,-0.437 1.101,0.589 1.11,0.797 1.109,0.102 1.11,-0.199 1.109,-1.852 1.109,-0.328 1.114,0.617 1.109,-0.719 1.109,1.743 1.11,-0.172 1.101,1.84 1.11,-3.258 1.109,0.136 1.109,-18.878 1.11,19.902 1.109,1.047 1.113,-9.399 1.11,9.75 1.109,-4.031 1.11,-4.91 1.101,9.121 1.109,0.59 1.11,-0.27 1.109,-3.66 1.11,1.731 1.113,0.097 1.109,-1.078 1.11,0.512 1.109,-0.012 1.109,-4.18 1.102,-1.55 1.109,-0.86 1.11,-0.55 1.109,0.261 1.109,-1.39 1.114,-0.532 1.109,-4.449 1.109,5.121 1.11,0.09 1.109,1.84 1.102,-9.32 1.109,6.781 1.11,-13.453 1.109,13.429 1.109,-8.429 1.114,7.101 1.109,-6.898 1.109,-7.942 1.11,14.348 1.109,-3.129 1.102,-1.789 1.109,3.449 1.109,-0.789 1.11,-3.41 1.109,-0.422 1.113,1.973 1.11,-0.231 1.109,0.258 1.11,-0.078 1.109,-3.898 1.101,2.726 1.11,-0.289 1.109,0.973 1.11,-3.973 1.113,0.961 1.109,1.059 1.11,-5.758 1.109,0.699 1.109,2.442 1.11,1.707 1.101,-4.911 1.11,1.762 1.109,-0.57 1.109,0.121 1.114,-0.32 1.109,-1.282 1.109,0.75 1.11,-1.168 1.109,-2.421 1.11,0.121 1.101,1.55 1.11,1.289 1.109,-0.511 1.109,0.332 1.114,-0.922 1.109,1.101 1.109,-2.359 1.11,0.18 1.109,-1.66 1.102,-0.25 1.109,-9.403 1.109,4.043 1.11,-0.621 1.109,-2.5 1.113,1.16 1.11,-0.66 1.109,-2.738 1.11,1.457 1.109,-2.551 1.101,-1.976 1.11,-1.122 1.109,1.27 1.11,0.309 1.113,-0.571 1.109,-0.386 1.11,-1.903 1.109,-0.668 1.109,0.071 1.11,-0.692 1.101,-1 1.11,-3.39 1.109,-14.168" /><path
       inkscape:connector-curvature="0"
       id="path116"
       style="fill:none;stroke:#000000;stroke-width:0.75;stroke-linecap:round;stroke-linejoin:round;stroke-miterlimit:10;stroke-dasharray:none;stroke-opacity:1"
       d="m 645.82,549.23098 14.261,0" /><path
       inkscape:connector-curvature="0"
       id="path120"
       style="fill:none;stroke:#bebebe;stroke-width:0.75;stroke-linecap:round;stroke-linejoin:round;stroke-miterlimit:10;stroke-dasharray:none;stroke-opacity:1"
       d="m 645.82,539.71998 14.261,0" /><text
       transform="scale(1,-1)"
       style="font-variant:normal;font-weight:normal;font-size:8px;font-family:TeXGyreHeros;-inkscape-font-specification:TeXGyreHeros-Regular;writing-mode:lr-tb;fill:#000000;fill-opacity:1;fill-rule:nonzero;stroke:none"
       id="text122"
       x="667.211"
       y="-546.35004"
       clip-path="none"><tspan
         x="667.211"
         y="-546.35004"
         sodipodi:role="line"
         id="tspan124">read depth in well A_A02</tspan><tspan
         x="667.211"
         sodipodi:role="line"
         id="tspan126"
         y="-536.35004">mean read depth across plate</tspan></text>
<path
       d="m 66.469,290.19098 1.109,-0.402 1.113,-2.43 1.11,-0.66 1.109,-2.097 1.102,2.097 1.109,-2.308 1.109,0.738 1.11,2.461 1.109,-0.141 1.11,-1.969 1.113,-1.339 1.109,-1.172 1.11,4.179 1.109,-2.808 1.102,1.219 1.109,1.121 1.109,4.879 1.11,-7.547 1.109,7.558 1.109,-2.379 1.114,1.09 1.109,1.36 1.109,-2.563 1.11,-1.488 1.101,2.91 1.11,2.461 1.109,-0.563 1.11,-1.937 1.109,0.84 1.109,2.379 1.114,-4.2 1.109,3.34 1.109,3.102 1.102,-4.043 1.109,1.512 1.11,-2.34 1.109,0.82 1.109,-0.859 1.11,5.859 1.109,-3.75 1.113,-0.152 1.11,-2.641 1.109,1.641 1.102,-0.297 1.109,-0.492 1.109,-3.821 1.11,-2.429 1.109,3.629 1.11,2.41 1.113,-3.02 1.109,-2.168 1.11,35.457 1.109,-4.488 1.102,0.789 1.109,-0.43 1.109,-7.648 1.11,15.039 1.109,-5.852 1.109,-8.546 1.114,11.769 1.109,-3.351 1.109,-3.141 1.11,8.199 1.101,-5.789 1.11,-2.5 1.109,-0.449 1.11,2.711 1.109,0.371 1.109,3.976 1.114,-6.097 1.109,-5.86 1.109,4.118 1.11,-3.071 1.101,-2.597 1.11,-0.211 1.109,-0.481 1.109,-15.668 1.11,7.328 1.109,-5.898 1.113,-2.949 1.11,-0.442 1.109,1.539 1.11,-0.91 1.101,2.742 1.109,-1.972 1.11,3.851 1.109,-3.332 1.11,-4.218 1.113,7.031 1.109,-2.93 1.11,-2.723 1.109,6.5 1.109,-4.429 1.102,-0.547 1.109,1.879 1.11,2.73 1.109,-3.14 1.109,0.121 1.114,-2.532 1.109,7.77 1.109,-3.672 1.11,1.434 1.109,-2.032 1.102,6.079 1.109,-5.579 1.11,-1.921 1.109,-0.411 1.109,4.012 1.114,-4.832 1.109,3.113 1.109,-2.519 1.11,2.609 1.109,-0.652 1.102,-5.867 1.109,-1.563 1.109,1.211 1.11,1.469 1.109,-7.27 1.113,9.801 1.11,-1.148 1.109,-6.59 1.11,6.867 1.109,-0.199 1.101,-1.36 1.11,1.461 1.109,1.071 1.11,-3.332 1.113,2.992 1.109,-2.852 1.11,-1.07 1.109,-7.77 1.109,8.391 1.102,3.918 1.109,-8.578 1.11,-1.723 1.109,3.793 1.109,1.957 1.114,-2.988 1.109,-7.148 1.109,11.828 1.11,1.519 1.109,-3.699 1.102,-7.16 1.109,13.73 1.11,-9.011 1.109,5.89 1.109,0.789 1.114,-4.758 1.109,8.93 1.109,-8.871 1.11,1.25 1.109,2.199 1.102,0.481 1.109,-6.297 1.109,15.34 1.11,-14.172 1.109,2.91 1.113,4.148 1.11,-5.679 1.109,-1.207 1.11,6.097 1.109,-1.281 1.101,-0.719 1.11,-2.937 1.109,1.668 1.11,2.012 1.113,-3.954 1.109,3.563 1.11,3.187 1.109,-1.277 1.109,-1 1.11,-1.383 1.101,-1.277 1.11,-4.922 1.109,6.371 1.109,-1.922 1.114,7.762 1.109,-7.898 1.109,5.609 1.11,-0.602 1.109,-10.05 1.11,11.332 1.101,1.129 1.11,-9.461 1.109,-4.528 1.109,5.989 1.114,4.269 1.109,-4.41 1.109,1.312 1.11,-6.543 1.109,10.114 1.109,-4.59 1.102,-5.121 1.109,6.871 1.11,-2.832 1.109,2.789 1.113,-3.84 1.11,0.5 1.109,1.512 1.11,1.449 1.109,-1.988 1.109,12.816 1.102,-9.59 1.109,1.692 1.11,-1.352 1.113,-0.039 1.109,0.832 1.11,-7.66 1.109,-3.199 1.109,6.359 1.11,-0.723 1.109,-1.148 1.102,-0.141 1.109,3.11 1.109,2.582 1.114,-2.711 1.109,-0.461 1.109,2.062 1.11,-2.41 1.109,3.578 1.11,1.461 1.101,0.578 1.11,1.774 1.109,1.789 1.109,-3.5 1.114,-4.801 1.109,5.36 1.109,-0.829 1.11,2.957 1.109,-2.597 1.109,-1.781 1.102,11.14 1.109,-10.961 1.11,-0.051 1.109,-0.449 1.113,-0.078 1.11,1.34 1.109,-1.512 1.11,-7.66 1.109,9.383 1.109,0.84 1.102,-2.512 1.109,3.211 1.11,3.57 1.113,0.547 1.109,-6.687 1.11,5.5 1.109,-4.879 1.109,3.429 1.11,-3.632 1.109,-2.668 1.102,0.468 1.109,2.172 1.109,2.598 1.114,-1.969 1.109,2.07 1.109,0.168 1.11,-1.726 1.109,0.469 1.11,3.031 1.113,-7.5 1.098,2.047 1.109,4.25 1.109,2.133 1.114,-3.032 1.109,4.379 1.109,-4.789 1.11,-2.851 1.109,3.211 1.109,0.199 1.114,0.203 1.097,2.906 1.11,6.07 1.109,-9.839 1.113,0.41 1.11,-1.258 1.109,5.398 1.11,-2.91 1.109,-1.828 1.109,-1.051 1.114,1.68 1.097,3.512 1.11,-1.961 1.113,-3.961 1.109,5.18 1.11,-1.059 1.109,-6.699 1.109,1.816 1.11,4.293 1.109,-0.793 1.113,-7.25 1.098,6.692 1.109,-0.301 1.114,-0.957 1.109,4.789 1.109,-4.949 1.11,5.039 1.109,-4.84 1.11,2.5 1.113,1.629 1.109,-7.77 1.098,5.719 1.109,0.449 1.114,1.031 1.109,-4.589 1.109,-1.77 1.11,5.48 1.109,-5.8 1.109,0.351 1.114,-1.582 1.097,2.973 1.11,-0.024 1.109,1.332 1.113,-2.308 1.11,3.348 1.109,0.152 1.11,13.476 1.109,-10.386 1.109,-2.282 1.114,4.27 1.097,3.379 1.11,-4.867 1.113,-4.184 1.109,0.371 1.11,-3.129 1.109,8.981 1.109,-1.981 1.11,1.758 1.109,2.692 1.113,-3.231 1.098,-2.84 1.109,7.039 1.114,-6.269 1.109,2.121 1.109,-0.379 1.11,3.559 1.109,-5.168 1.11,7.226 1.113,-1.43 1.109,1.34 1.098,-0.937 1.109,-4.102 1.114,2.27 1.109,3.5 1.109,-5.071 1.11,-0.867 1.109,3.11 1.109,-1.539 1.114,3.429 1.109,2.36 1.098,-0.813 1.109,1.524 1.113,-0.301 1.11,-0.129 1.109,-1.024 1.11,2.59 1.109,-1.199 1.109,0.242 1.114,-2.922 1.109,-1.269 1.098,1.43 1.113,8.359 1.109,-2.988 1.11,-1.039 1.109,7.519 1.109,-5.461 1.11,-1.359 1.109,3.371 1.113,1.848 1.11,-3.418 1.097,4.257 1.114,-0.558 1.109,-3.34 1.109,1.687 1.11,-4.07 1.109,1.633 1.11,-1.133 1.113,-0.789 1.109,3.313 1.11,-2.352 1.097,1.719 1.114,-2.207 1.109,3.547 1.109,-0.18 1.11,-2.109 1.109,0.968 1.109,-3.289 1.114,4.801 1.109,-1.84 1.109,-4.801 1.098,5 1.113,2.371 1.11,-6.05 1.109,4.172 1.11,0.16 1.109,0.758 1.109,-6.36 1.114,2.699 1.109,4.09 1.109,-3.551 1.102,2.543 1.109,-0.621 1.11,-3.039 1.109,3.75 1.109,4.09 1.11,-8.441 1.109,4.859 1.113,0.621 1.11,-1.07 1.097,0.769 1.114,-0.16 1.109,-0.91 1.109,5.223 1.11,-1.852 1.109,1.621 1.11,-0.031 1.113,-9.84 1.109,6.442 1.11,1.339 1.097,0.879 1.114,-1.511 1.109,-1.278 1.109,1.289 1.11,-0.25 1.109,-1.3 1.109,-1.598 1.114,2.816 1.109,-0.008 1.109,-2.289 1.098,1.68 1.113,-0.609 1.11,1.429 1.109,0.571 1.11,3.508 1.109,-5.52 1.109,2.09 1.114,1 1.109,-0.371 1.109,-0.129 1.102,-10.391 1.109,9.891 1.11,-1.711 1.109,1 1.109,-1.84 1.11,-0.84 1.109,5.422 1.113,-0.293 1.11,-6.226 1.109,5.218 1.102,0.879 1.109,-1.039 1.109,-0.898 1.11,0.519 1.109,-2.492 1.11,-13.84 1.113,14.172 1.109,-1.672 1.11,1.461 1.109,2.762 1.102,2.148 1.109,-1.039 1.109,2.239 1.11,-0.43 1.109,1.769 1.109,-7.558 1.114,7.551 1.109,-1.012 1.109,-0.301 1.11,1.289 1.101,-4.668 1.11,4.11 1.109,1.152 1.11,-0.582 1.109,0.371 1.109,0.758 1.114,1.812 1.109,-1.301 1.109,-2.07 1.11,-4.191 1.101,2.73 1.11,-4.199 1.109,8.84 1.109,-4.399 1.11,2.297 1.109,-2.25 1.113,-0.078 1.11,1.059 1.109,2.633 1.11,-5.821 1.101,3.719 1.109,-3.922 1.11,4.223 1.109,0.301 1.11,-4.852 1.113,-0.621 1.109,1.543 1.11,1.258 1.109,-0.008 1.102,0.238 1.109,1.531 1.109,-2.242 1.11,-1.969 1.109,2.95 1.109,-1.18 1.114,1.68 1.109,-2.84 1.109,2.789 1.11,1.98 1.101,-1.289 1.11,0.93 1.109,1.531 1.11,-2.25 1.109,-1.672 1.109,1.891 1.114,1.102 1.109,-1.821 1.109,0.949 1.11,0.149 1.101,-2.348 1.11,-1.301 1.109,-0.121 1.109,-6.738 1.11,8.301 1.109,0.726 1.113,-2.589 1.11,4.73 1.109,-2.269 1.11,-2.329 1.101,4.438 1.109,-2.098 1.11,5.071 1.109,-2.582 1.11,-1.45 1.113,1.52 1.109,0.101 1.11,-6.07 1.109,2.418 1.109,1.902 1.102,-3.543 1.109,3.153 1.11,-4.391 1.109,3.82 1.109,-4.48 1.114,3.672 1.109,4.558 1.109,-2.699 1.11,-0.883 1.109,-1.546 1.102,-4.274 1.109,8.832 1.11,-7.262 1.109,2.43 1.109,-4.219 1.114,1.301 1.109,-3.07 1.109,-0.602 1.11,3.282 1.109,1.82 1.102,-1.719 1.109,0.328 1.109,-0.949 1.11,2.859 1.109,-2.871 1.113,-0.847 1.11,-0.61 1.109,1.391 1.11,-0.742 1.109,2.468 1.101,-3.898 1.11,3.469 1.109,-3.239 1.11,-0.699 1.113,0 1.109,-0.082 1.11,-0.808 1.109,2.64 1.109,-0.441 1.11,-0.629 1.101,0.09 1.11,0.14 1.109,-0.332 1.109,-0.91 1.114,1.082 1.109,3.489 1.109,-0.629 1.11,-2.243 1.109,-2.007 1.11,-0.102 1.101,-1.301 1.11,2.953 1.109,1.239 1.109,0.531 1.114,-0.039 1.109,-0.121 1.109,0.379 1.11,-0.16 1.109,0.589 1.102,-1.398 1.109,-5.02 1.109,2.258 1.11,1.321 1.109,-1.129 1.113,0.64 1.11,-1.051 1.109,-1.742 1.11,0.391 1.109,1.34 1.101,0.043 1.11,2.558 1.109,-5.101 1.11,2.972 1.113,-1.953 1.109,1.133 1.11,-0.012 1.109,-2.668 1.109,3.168 1.11,-0.218 1.101,-0.782 1.11,1.243 1.109,-2.622"
       style="fill:none;stroke:#000000;stroke-width:0.75;stroke-linecap:round;stroke-linejoin:round;stroke-miterlimit:10;stroke-dasharray:none;stroke-opacity:1"
       id="path132"
       inkscape:connector-curvature="0" /><path
       d="m 65.359,223.96098 665.391,0"
       style="fill:none;stroke:#000000;stroke-width:0.75;stroke-linecap:round;stroke-linejoin:round;stroke-miterlimit:10;stroke-dasharray:none;stroke-opacity:1"
       id="path136"
       inkscape:connector-curvature="0" /><path
       d="m 65.359,223.96098 0,-4.75"
       style="fill:none;stroke:#000000;stroke-width:0.75;stroke-linecap:round;stroke-linejoin:round;stroke-miterlimit:10;stroke-dasharray:none;stroke-opacity:1"
       id="path140"
       inkscape:connector-curvature="0" /><path
       d="m 176.262,223.96098 0,-4.75"
       style="fill:none;stroke:#000000;stroke-width:0.75;stroke-linecap:round;stroke-linejoin:round;stroke-miterlimit:10;stroke-dasharray:none;stroke-opacity:1"
       id="path144"
       inkscape:connector-curvature="0" /><path
       d="m 287.16,223.96098 0,-4.75"
       style="fill:none;stroke:#000000;stroke-width:0.75;stroke-linecap:round;stroke-linejoin:round;stroke-miterlimit:10;stroke-dasharray:none;stroke-opacity:1"
       id="path148"
       inkscape:connector-curvature="0" /><path
       d="m 398.059,223.96098 0,-4.75"
       style="fill:none;stroke:#000000;stroke-width:0.75;stroke-linecap:round;stroke-linejoin:round;stroke-miterlimit:10;stroke-dasharray:none;stroke-opacity:1"
       id="path152"
       inkscape:connector-curvature="0" /><path
       d="m 508.961,223.96098 0,-4.75"
       style="fill:none;stroke:#000000;stroke-width:0.75;stroke-linecap:round;stroke-linejoin:round;stroke-miterlimit:10;stroke-dasharray:none;stroke-opacity:1"
       id="path156"
       inkscape:connector-curvature="0" /><path
       d="m 619.852,223.96098 0,-4.75"
       style="fill:none;stroke:#000000;stroke-width:0.75;stroke-linecap:round;stroke-linejoin:round;stroke-miterlimit:10;stroke-dasharray:none;stroke-opacity:1"
       id="path160"
       inkscape:connector-curvature="0" /><path
       d="m 730.75,223.96098 0,-4.75"
       style="fill:none;stroke:#000000;stroke-width:0.75;stroke-linecap:round;stroke-linejoin:round;stroke-miterlimit:10;stroke-dasharray:none;stroke-opacity:1"
       id="path164"
       inkscape:connector-curvature="0" /><text
       id="text166"
       style="font-variant:normal;font-weight:normal;font-size:8px;font-family:TeXGyreHeros;-inkscape-font-specification:TeXGyreHeros-Regular;writing-mode:lr-tb;fill:#000000;fill-opacity:1;fill-rule:nonzero;stroke:none"
       transform="scale(1,-1)"
       x="63.139999"
       y="-206.84999"><tspan
         id="tspan168"
         sodipodi:role="line"
         y="-206.84999"
         x="63.139999 169.59 174.03801 178.48601 280.49002 284.93802 289.38602 391.39001 395.83801 400.28601 502.28003 506.72803 511.17603 613.17999 617.62799 622.07599 724.08002 728.52802 732.97601">0100200300400500600</tspan></text>
<path
       d="m 38.969,241.60898 0,119.282"
       style="fill:none;stroke:#000000;stroke-width:0.75;stroke-linecap:round;stroke-linejoin:round;stroke-miterlimit:10;stroke-dasharray:none;stroke-opacity:1"
       id="path172"
       inkscape:connector-curvature="0" /><path
       d="m 38.969,241.60898 -4.758,0"
       style="fill:none;stroke:#000000;stroke-width:0.75;stroke-linecap:round;stroke-linejoin:round;stroke-miterlimit:10;stroke-dasharray:none;stroke-opacity:1"
       id="path176"
       inkscape:connector-curvature="0" /><path
       d="m 38.969,271.42998 -4.758,0"
       style="fill:none;stroke:#000000;stroke-width:0.75;stroke-linecap:round;stroke-linejoin:round;stroke-miterlimit:10;stroke-dasharray:none;stroke-opacity:1"
       id="path180"
       inkscape:connector-curvature="0" /><path
       d="m 38.969,301.24998 -4.758,0"
       style="fill:none;stroke:#000000;stroke-width:0.75;stroke-linecap:round;stroke-linejoin:round;stroke-miterlimit:10;stroke-dasharray:none;stroke-opacity:1"
       id="path184"
       inkscape:connector-curvature="0" /><path
       d="m 38.969,331.06998 -4.758,0"
       style="fill:none;stroke:#000000;stroke-width:0.75;stroke-linecap:round;stroke-linejoin:round;stroke-miterlimit:10;stroke-dasharray:none;stroke-opacity:1"
       id="path188"
       inkscape:connector-curvature="0" /><path
       d="m 38.969,360.89098 -4.758,0"
       style="fill:none;stroke:#000000;stroke-width:0.75;stroke-linecap:round;stroke-linejoin:round;stroke-miterlimit:10;stroke-dasharray:none;stroke-opacity:1"
       id="path192"
       inkscape:connector-curvature="0" /><text
       id="text194"
       style="font-variant:normal;font-weight:normal;font-size:8px;font-family:TeXGyreHeros;-inkscape-font-specification:TeXGyreHeros-Regular;writing-mode:lr-tb;fill:#000000;fill-opacity:1;fill-rule:nonzero;stroke:none"
       transform="matrix(0,1,1,0,0,0)"
       x="228.03999"
       y="27.560001"><tspan
         id="tspan196"
         y="27.560001"
         x="228.03999">−</tspan></text>
<text
       id="text198"
       style="font-variant:normal;font-weight:normal;font-size:8px;font-family:TeXGyreHeros;-inkscape-font-specification:TeXGyreHeros-Regular;writing-mode:lr-tb;fill:#000000;fill-opacity:1;fill-rule:nonzero;stroke:none"
       transform="matrix(0,1,1,0,0,0)"
       x="232.71199"
       y="27.560001"><tspan
         id="tspan200"
         sodipodi:role="line"
         y="27.560001"
         x="232.71199 237.15999">1e</tspan></text>
<text
       id="text202"
       style="font-variant:normal;font-weight:normal;font-size:8px;font-family:TeXGyreHeros;-inkscape-font-specification:TeXGyreHeros-Regular;writing-mode:lr-tb;fill:#000000;fill-opacity:1;fill-rule:nonzero;stroke:none"
       transform="matrix(0,1,1,0,0,0)"
       x="241.60799"
       y="27.560001"><tspan
         id="tspan204"
         y="27.560001"
         x="241.60799">−</tspan></text>
<text
       id="text206"
       style="font-variant:normal;font-weight:normal;font-size:8px;font-family:TeXGyreHeros;-inkscape-font-specification:TeXGyreHeros-Regular;writing-mode:lr-tb;fill:#000000;fill-opacity:1;fill-rule:nonzero;stroke:none"
       transform="matrix(0,1,1,0,0,0)"
       x="246.27998"
       y="27.560001"><tspan
         id="tspan208"
         sodipodi:role="line"
         y="27.560001"
         x="246.27998 250.728 290.02399 294.47198 298.91998 303.59198 308.03998 319.832 324.28">030e+005e</tspan></text>
<text
       id="text210"
       style="font-variant:normal;font-weight:normal;font-size:8px;font-family:TeXGyreHeros;-inkscape-font-specification:TeXGyreHeros-Regular;writing-mode:lr-tb;fill:#000000;fill-opacity:1;fill-rule:nonzero;stroke:none"
       transform="matrix(0,1,1,0,0,0)"
       x="328.728"
       y="27.560001"><tspan
         id="tspan212"
         y="27.560001"
         x="328.728">−</tspan></text>
<text
       id="text214"
       style="font-variant:normal;font-weight:normal;font-size:8px;font-family:TeXGyreHeros;-inkscape-font-specification:TeXGyreHeros-Regular;writing-mode:lr-tb;fill:#000000;fill-opacity:1;fill-rule:nonzero;stroke:none"
       transform="matrix(0,1,1,0,0,0)"
       x="333.39999"
       y="27.560001"><tspan
         id="tspan216"
         sodipodi:role="line"
         y="27.560001"
         x="333.39999 337.84799 349.65598 354.104">041e</tspan></text>
<text
       id="text218"
       style="font-variant:normal;font-weight:normal;font-size:8px;font-family:TeXGyreHeros;-inkscape-font-specification:TeXGyreHeros-Regular;writing-mode:lr-tb;fill:#000000;fill-opacity:1;fill-rule:nonzero;stroke:none"
       transform="matrix(0,1,1,0,0,0)"
       x="358.552"
       y="27.560001"><tspan
         id="tspan220"
         y="27.560001"
         x="358.552">−</tspan></text>
<text
       id="text222"
       style="font-variant:normal;font-weight:normal;font-size:8px;font-family:TeXGyreHeros;-inkscape-font-specification:TeXGyreHeros-Regular;writing-mode:lr-tb;fill:#000000;fill-opacity:1;fill-rule:nonzero;stroke:none"
       transform="matrix(0,1,1,0,0,0)"
       x="363.224"
       y="27.560001"><tspan
         id="tspan224"
         sodipodi:role="line"
         y="27.560001"
         x="363.224 367.672">03</tspan></text>
<path
       d="m 38.969,378.53898 742.582,0 0,-154.578 -742.582,0 0,154.578 z"
       style="fill:none;stroke:#000000;stroke-width:0.75;stroke-linecap:round;stroke-linejoin:round;stroke-miterlimit:10;stroke-dasharray:none;stroke-opacity:1"
       id="path228"
       inkscape:connector-curvature="0" /><text
       id="text230"
       style="font-variant:normal;font-weight:normal;font-size:8px;font-family:TeXGyreHeros;-inkscape-font-specification:TeXGyreHeros-Regular;writing-mode:lr-tb;fill:#000000;fill-opacity:1;fill-rule:nonzero;stroke:none"
       transform="matrix(0,1,1,0,0,0)"
       x="265.13"
       y="8.5500021"><tspan
         id="tspan232"
         sodipodi:role="line"
         y="8.5500021"
         x="265.13 269.578 273.78598 277.78598 279.56198 284.00998 286.23398 288.00998 292.45798 296.90598 299.13 301.354 304.01801 308.466 315.13 317.354 324.01801 328.466 332.914">deviation from mean</tspan></text>
<path
       inkscape:connector-curvature="0"
       id="path244"
       style="fill:none;stroke:#000000;stroke-width:0.75;stroke-linecap:round;stroke-linejoin:round;stroke-miterlimit:10;stroke-dasharray:0, 3;stroke-dashoffset:0;stroke-opacity:1"
       d="m 38.969,301.24998 742.582,0" /><path
       d="m 65.359,38.96898 665.391,0"
       style="fill:none;stroke:#000000;stroke-width:0.75;stroke-linecap:round;stroke-linejoin:round;stroke-miterlimit:10;stroke-dasharray:none;stroke-opacity:1"
       id="path250"
       inkscape:connector-curvature="0" /><path
       d="m 65.359,38.96898 0,-4.758"
       style="fill:none;stroke:#000000;stroke-width:0.75;stroke-linecap:round;stroke-linejoin:round;stroke-miterlimit:10;stroke-dasharray:none;stroke-opacity:1"
       id="path254"
       inkscape:connector-curvature="0" /><path
       d="m 176.262,38.96898 0,-4.758"
       style="fill:none;stroke:#000000;stroke-width:0.75;stroke-linecap:round;stroke-linejoin:round;stroke-miterlimit:10;stroke-dasharray:none;stroke-opacity:1"
       id="path258"
       inkscape:connector-curvature="0" /><path
       d="m 287.16,38.96898 0,-4.758"
       style="fill:none;stroke:#000000;stroke-width:0.75;stroke-linecap:round;stroke-linejoin:round;stroke-miterlimit:10;stroke-dasharray:none;stroke-opacity:1"
       id="path262"
       inkscape:connector-curvature="0" /><path
       d="m 398.059,38.96898 0,-4.758"
       style="fill:none;stroke:#000000;stroke-width:0.75;stroke-linecap:round;stroke-linejoin:round;stroke-miterlimit:10;stroke-dasharray:none;stroke-opacity:1"
       id="path266"
       inkscape:connector-curvature="0" /><path
       d="m 508.961,38.96898 0,-4.758"
       style="fill:none;stroke:#000000;stroke-width:0.75;stroke-linecap:round;stroke-linejoin:round;stroke-miterlimit:10;stroke-dasharray:none;stroke-opacity:1"
       id="path270"
       inkscape:connector-curvature="0" /><path
       d="m 619.852,38.96898 0,-4.758"
       style="fill:none;stroke:#000000;stroke-width:0.75;stroke-linecap:round;stroke-linejoin:round;stroke-miterlimit:10;stroke-dasharray:none;stroke-opacity:1"
       id="path274"
       inkscape:connector-curvature="0" /><path
       d="m 730.75,38.96898 0,-4.758"
       style="fill:none;stroke:#000000;stroke-width:0.75;stroke-linecap:round;stroke-linejoin:round;stroke-miterlimit:10;stroke-dasharray:none;stroke-opacity:1"
       id="path278"
       inkscape:connector-curvature="0" /><text
       id="text280"
       style="font-variant:normal;font-weight:normal;font-size:8px;font-family:TeXGyreHeros;-inkscape-font-specification:TeXGyreHeros-Regular;writing-mode:lr-tb;fill:#000000;fill-opacity:1;fill-rule:nonzero;stroke:none"
       transform="scale(1,-1)"
       x="63.139999"
       y="-21.859999"><tspan
         id="tspan282"
         sodipodi:role="line"
         y="-21.859999"
         x="63.139999 169.59 174.03801 178.48601 280.49002 284.93802 289.38602 391.39001 395.83801 400.28601 502.28003 506.72803 511.17603 613.17999 617.62799 622.07599 724.08002 728.52802 732.97601">0100200300400500600</tspan></text>
<path
       d="m 38.969,44.69098 0,143.129"
       style="fill:none;stroke:#000000;stroke-width:0.75;stroke-linecap:round;stroke-linejoin:round;stroke-miterlimit:10;stroke-dasharray:none;stroke-opacity:1"
       id="path286"
       inkscape:connector-curvature="0" /><path
       d="m 38.969,44.69098 -4.758,0"
       style="fill:none;stroke:#000000;stroke-width:0.75;stroke-linecap:round;stroke-linejoin:round;stroke-miterlimit:10;stroke-dasharray:none;stroke-opacity:1"
       id="path290"
       inkscape:connector-curvature="0" /><path
       d="m 38.969,80.46898 -4.758,0"
       style="fill:none;stroke:#000000;stroke-width:0.75;stroke-linecap:round;stroke-linejoin:round;stroke-miterlimit:10;stroke-dasharray:none;stroke-opacity:1"
       id="path294"
       inkscape:connector-curvature="0" /><path
       d="m 38.969,116.26198 -4.758,0"
       style="fill:none;stroke:#000000;stroke-width:0.75;stroke-linecap:round;stroke-linejoin:round;stroke-miterlimit:10;stroke-dasharray:none;stroke-opacity:1"
       id="path298"
       inkscape:connector-curvature="0" /><path
       d="m 38.969,152.03898 -4.758,0"
       style="fill:none;stroke:#000000;stroke-width:0.75;stroke-linecap:round;stroke-linejoin:round;stroke-miterlimit:10;stroke-dasharray:none;stroke-opacity:1"
       id="path302"
       inkscape:connector-curvature="0" /><path
       d="m 38.969,187.81998 -4.758,0"
       style="fill:none;stroke:#000000;stroke-width:0.75;stroke-linecap:round;stroke-linejoin:round;stroke-miterlimit:10;stroke-dasharray:none;stroke-opacity:1"
       id="path306"
       inkscape:connector-curvature="0" /><text
       id="text308"
       style="font-variant:normal;font-weight:normal;font-size:8px;font-family:TeXGyreHeros;-inkscape-font-specification:TeXGyreHeros-Regular;writing-mode:lr-tb;fill:#000000;fill-opacity:1;fill-rule:nonzero;stroke:none"
       transform="matrix(0,1,1,0,0,0)"
       x="31.119999"
       y="27.560001"><tspan
         id="tspan310"
         y="27.560001"
         x="31.119999">−</tspan></text>
<text
       id="text312"
       style="font-variant:normal;font-weight:normal;font-size:8px;font-family:TeXGyreHeros;-inkscape-font-specification:TeXGyreHeros-Regular;writing-mode:lr-tb;fill:#000000;fill-opacity:1;fill-rule:nonzero;stroke:none"
       transform="matrix(0,1,1,0,0,0)"
       x="35.792"
       y="27.560001"><tspan
         id="tspan314"
         sodipodi:role="line"
         y="27.560001"
         x="35.792 40.239998">1e</tspan></text>
<text
       id="text316"
       style="font-variant:normal;font-weight:normal;font-size:8px;font-family:TeXGyreHeros;-inkscape-font-specification:TeXGyreHeros-Regular;writing-mode:lr-tb;fill:#000000;fill-opacity:1;fill-rule:nonzero;stroke:none"
       transform="matrix(0,1,1,0,0,0)"
       x="44.688"
       y="27.560001"><tspan
         id="tspan318"
         y="27.560001"
         x="44.688">−</tspan></text>
<text
       id="text320"
       style="font-variant:normal;font-weight:normal;font-size:8px;font-family:TeXGyreHeros;-inkscape-font-specification:TeXGyreHeros-Regular;writing-mode:lr-tb;fill:#000000;fill-opacity:1;fill-rule:nonzero;stroke:none"
       transform="matrix(0,1,1,0,0,0)"
       x="49.360001"
       y="27.560001"><tspan
         id="tspan322"
         sodipodi:role="line"
         y="27.560001"
         x="49.360001 53.807999">03</tspan></text>
<text
       id="text324"
       style="font-variant:normal;font-weight:normal;font-size:8px;font-family:TeXGyreHeros;-inkscape-font-specification:TeXGyreHeros-Regular;writing-mode:lr-tb;fill:#000000;fill-opacity:1;fill-rule:nonzero;stroke:none"
       transform="matrix(0,1,1,0,0,0)"
       x="66.912003"
       y="27.560001"><tspan
         id="tspan326"
         y="27.560001"
         x="66.912003">−</tspan></text>
<text
       id="text328"
       style="font-variant:normal;font-weight:normal;font-size:8px;font-family:TeXGyreHeros;-inkscape-font-specification:TeXGyreHeros-Regular;writing-mode:lr-tb;fill:#000000;fill-opacity:1;fill-rule:nonzero;stroke:none"
       transform="matrix(0,1,1,0,0,0)"
       x="71.584"
       y="27.560001"><tspan
         id="tspan330"
         sodipodi:role="line"
         y="27.560001"
         x="71.584 76.031998">5e</tspan></text>
<text
       id="text332"
       style="font-variant:normal;font-weight:normal;font-size:8px;font-family:TeXGyreHeros;-inkscape-font-specification:TeXGyreHeros-Regular;writing-mode:lr-tb;fill:#000000;fill-opacity:1;fill-rule:nonzero;stroke:none"
       transform="matrix(0,1,1,0,0,0)"
       x="80.479996"
       y="27.560001"><tspan
         id="tspan334"
         y="27.560001"
         x="80.479996">−</tspan></text>
<text
       id="text336"
       style="font-variant:normal;font-weight:normal;font-size:8px;font-family:TeXGyreHeros;-inkscape-font-specification:TeXGyreHeros-Regular;writing-mode:lr-tb;fill:#000000;fill-opacity:1;fill-rule:nonzero;stroke:none"
       transform="matrix(0,1,1,0,0,0)"
       x="85.152"
       y="27.560001"><tspan
         id="tspan338"
         sodipodi:role="line"
         y="27.560001"
         x="85.152 89.599998 105.024 109.472 113.92 118.592 123.04 140.81599 145.26399">040e+005e</tspan></text>
<text
       id="text340"
       style="font-variant:normal;font-weight:normal;font-size:8px;font-family:TeXGyreHeros;-inkscape-font-specification:TeXGyreHeros-Regular;writing-mode:lr-tb;fill:#000000;fill-opacity:1;fill-rule:nonzero;stroke:none"
       transform="matrix(0,1,1,0,0,0)"
       x="149.71201"
       y="27.560001"><tspan
         id="tspan342"
         y="27.560001"
         x="149.71201">−</tspan></text>
<text
       id="text344"
       style="font-variant:normal;font-weight:normal;font-size:8px;font-family:TeXGyreHeros;-inkscape-font-specification:TeXGyreHeros-Regular;writing-mode:lr-tb;fill:#000000;fill-opacity:1;fill-rule:nonzero;stroke:none"
       transform="matrix(0,1,1,0,0,0)"
       x="154.384"
       y="27.560001"><tspan
         id="tspan346"
         sodipodi:role="line"
         y="27.560001"
         x="154.384 158.832 176.60001 181.048">041e</tspan></text>
<text
       id="text348"
       style="font-variant:normal;font-weight:normal;font-size:8px;font-family:TeXGyreHeros;-inkscape-font-specification:TeXGyreHeros-Regular;writing-mode:lr-tb;fill:#000000;fill-opacity:1;fill-rule:nonzero;stroke:none"
       transform="matrix(0,1,1,0,0,0)"
       x="185.496"
       y="27.560001"><tspan
         id="tspan350"
         y="27.560001"
         x="185.496">−</tspan></text>
<text
       id="text352"
       style="font-variant:normal;font-weight:normal;font-size:8px;font-family:TeXGyreHeros;-inkscape-font-specification:TeXGyreHeros-Regular;writing-mode:lr-tb;fill:#000000;fill-opacity:1;fill-rule:nonzero;stroke:none"
       transform="matrix(0,1,1,0,0,0)"
       x="190.168"
       y="27.560001"><tspan
         id="tspan354"
         sodipodi:role="line"
         y="27.560001"
         x="190.168 194.616">03</tspan></text>
<path
       d="m 38.969,193.55098 742.582,0 0,-154.582 -742.582,0 0,154.582 z"
       style="fill:none;stroke:#000000;stroke-width:0.75;stroke-linecap:round;stroke-linejoin:round;stroke-miterlimit:10;stroke-dasharray:none;stroke-opacity:1"
       id="path358"
       inkscape:connector-curvature="0" /><text
       id="text360"
       style="font-variant:normal;font-weight:normal;font-size:8px;font-family:TeXGyreHeros;-inkscape-font-specification:TeXGyreHeros-Regular;writing-mode:lr-tb;fill:#000000;fill-opacity:1;fill-rule:nonzero;stroke:none"
       transform="matrix(0,1,1,0,0,0)"
       x="89.57"
       y="8.5500021"><tspan
         id="tspan362"
         sodipodi:role="line"
         y="8.5500021"
         x="89.57 94.905998 99.353996 103.80199 108.25 110.474 114.922 119.37 121.59399 126.042 130.04199 132.26599 134.04199 138.48999">Edge detection</tspan></text>
<path
       d="m 120.809,192.78263 7.762,0 0,-152.441605 -7.762,0 z"
       style="fill:#ffb6c1;fill-opacity:1;fill-rule:nonzero;stroke:none"
       id="path372"
       inkscape:connector-curvature="0"
       sodipodi:nodetypes="ccccc" /><path
       d="m 147.43,193.18263 5.539,0 0,-152.841605 -5.539,0 z"
       style="fill:#ffb6c1;fill-opacity:1;fill-rule:nonzero;stroke:none"
       id="path382"
       inkscape:connector-curvature="0"
       sodipodi:nodetypes="ccccc" /><path
       d="m 66.469,120.65998 1.109,0.68 1.113,0.289 1.11,-1.109 1.109,-0.692 1.102,-0.797 1.109,-0.48 1.109,-1.321 1.11,0.141 1.109,-0.402 1.11,-0.391 1.113,-1.297 1.109,-1.722 1.11,-0.758 1.109,-0.332 1.102,-0.629 1.109,-0.891 1.109,0.18 1.11,0 1.109,-0.399 1.109,-0.05 1.114,0.55 1.109,0.59 1.109,0.219 1.11,-0.277 1.101,0.039 1.11,0.828 1.109,0.812 1.11,0.039 1.109,0.098 1.109,0.043 1.114,0.117 1.109,0.203 1.109,0.61 1.102,0.847 1.109,0.782 1.11,0.789 1.109,0.601 1.109,0.231 1.11,0.777 1.109,1.293 1.113,0.789 1.11,-3.289 1.109,-3.269 1.102,-3.582 1.109,-3.141 1.109,-2.91 1.11,-5.188 1.109,-4.453 1.11,-2.59 1.113,-4.777 1.109,-4.551 1.11,-0.16 1.109,2.891 1.102,2.949 1.109,3.32 1.109,2.461 1.11,3.488 1.109,4.84 1.109,2.192 1.114,3.031 1.109,5.098 1.109,4.082 1.11,0.808 1.101,1.949 1.11,0.879 1.109,0.641 1.11,3.711 1.109,1.398 1.109,3.321 1.114,4.453 1.109,1.66 1.109,1.656 1.11,2.281 1.101,0.282 1.11,0.879 1.109,0.628 1.109,-0.859 1.11,-1.668 1.109,-2.391 1.113,-3.57 1.11,-2.93 1.109,-2.871 1.11,-2.75 1.101,-2.097 1.109,-1.934 1.11,-2 1.109,-1.5 1.11,-0.539 1.113,-0.777 1.109,-0.524 1.11,-0.386 1.109,-0.071 1.109,0.239 1.102,-0.969 1.109,-0.473 1.11,0.543 1.109,0.078 1.109,-0.359 1.114,0.441 1.109,-0.152 1.109,0.992 1.11,0.738 1.109,-0.039 1.102,1.692 1.109,2 1.11,0.726 1.109,-0.047 1.109,1.629 1.114,0.34 1.109,0.57 1.109,0.5 1.11,0.129 1.109,0.219 1.102,-0.156 1.109,-1.953 1.109,-1.457 1.11,-0.5 1.109,-1.512 1.113,-1.352 1.11,0.403 1.109,0.039 1.11,-0.641 1.109,-0.629 1.101,0.301 1.11,1.219 1.109,1.262 1.11,0.597 1.113,0.75 1.109,2.492 1.11,-0.57 1.109,-1.68 1.109,-0.371 1.102,1.149 1.109,-1.039 1.11,-1.032 1.109,-1.668 1.109,-1.191 1.114,-0.348 1.109,-3 1.109,-1.031 1.11,0.551 1.109,0.961 1.102,-1.422 1.109,-0.328 1.11,-0.582 2.218,1.898 1.114,-0.258 1.109,1.282 1.109,2.289 1.11,-0.781 1.109,-0.391 1.102,0.473 1.109,0.968 1.109,0.211 1.11,1.199 1.109,-0.402 1.113,-0.058 1.11,-0.059 1.109,-1.813 1.11,-0.027 1.109,0.559 1.101,0.199 1.11,0.312 1.109,0.137 1.11,-1.027 1.113,-0.492 1.109,0.062 1.11,-0.301 1.109,0.692 1.109,1.758 1.11,-0.622 1.101,-0.918 1.11,-0.441 1.109,0.633 1.109,0.25 1.114,0.187 1.109,1.18 1.109,0.32 1.11,1.321 1.109,-1.02 1.11,-0.191 1.101,2.09 1.11,0.41 1.109,-0.328 1.109,-1.262 1.114,0.66 1.109,-0.348 1.109,0.059 1.11,-1.43 1.109,-0.679 1.109,-0.36 1.102,-1.73 1.109,-1.86 1.11,-0.07 1.109,0.457 1.113,-0.469 1.11,-0.468 1.109,0.679 1.11,0.121 1.109,0.93 1.109,1.149 1.102,2.101 1.109,1.399 1.11,0.308 1.113,0.801 1.109,0.621 1.11,0.012 1.109,-1.063 1.109,-1.301 1.11,-0.957 1.109,-1.031 1.102,-2.922 1.109,-1.636 1.109,-0.731 1.114,-0.012 1.109,-1.031 1.109,-0.84 1.11,-0.316 1.109,0.519 1.11,0.579 1.101,-0.43 1.11,1.301 1.109,1.75 1.109,1.23 1.114,-0.062 1.109,0.16 1.109,0.953 1.11,1.867 1.109,1.082 1.109,0.027 1.102,1.274 1.109,0.84 1.11,-1.121 1.109,-1.461 1.113,-0.309 1.11,-0.23 1.109,-0.321 1.11,-1.73 1.109,-1.43 1.109,0.41 1.102,0.379 1.109,-1.14 1.11,0.679 1.113,1.422 1.109,0.481 1.11,0.328 1.109,0.453 1.109,0.406 1.11,0.934 1.109,-0.051 1.102,-0.652 1.109,-0.547 1.109,-0.621 1.114,-0.61 1.109,-1.179 1.109,0.449 1.11,-0.039 1.109,0 1.11,-0.012 1.113,-0.129 1.098,-0.82 1.109,-0.852 1.109,0.84 1.114,0.359 1.109,0.922 1.109,-0.031 1.11,-0.609 1.109,-0.149 1.109,0.34 1.114,-0.191 1.097,0.672 1.11,1.738 1.109,1.238 1.113,-0.758 1.11,-0.371 1.109,0.403 1.11,1.058 1.109,0.32 1.109,-0.32 1.114,0.602 1.097,0.398 1.11,0.27 1.113,-1.051 1.109,-0.301 1.11,0.742 1.109,-0.648 1.109,-1.301 1.11,-0.512 1.109,-0.07 1.113,0.02 1.098,-0.93 1.109,-0.641 1.114,-0.687 1.109,0.808 1.109,0.371 1.11,-0.14 1.109,1.379 1.11,0.84 1.113,1.011 1.109,0.008 1.098,0.633 1.109,0.418 1.114,0.902 1.109,0.199 1.109,-1.171 1.11,-1.739 1.109,-1.14 1.109,-0.942 1.114,-1.898 1.097,-2.328 1.11,-0.461 1.109,-0.492 1.113,-0.707 1.11,-0.321 1.109,-0.441 1.11,1.648 1.109,1.153 1.109,0.007 1.114,0.59 1.097,2.032 1.11,0.66 1.113,0.332 1.109,-0.543 1.11,-0.559 1.109,-0.68 1.109,0.758 1.11,-1.75 1.109,0.203 1.113,0.25 1.098,-0.871 1.109,-0.289 1.114,0.117 1.109,-0.296 1.109,0.468 1.11,1.34 1.109,-0.308 1.11,0.359 1.113,0.437 1.109,-0.187 1.098,0.348 1.109,-0.09 1.114,-1.129 1.109,0.34 1.109,0.019 2.219,-1.937 1.109,-0.203 1.114,-0.489 1.109,0.532 1.098,0.386 1.109,-0.418 1.113,0.578 1.11,0.372 1.109,-1.079 1.11,0.368 1.109,0.812 1.109,-0.09 1.114,-0.453 1.109,-0.949 1.098,-1.731 1.113,-0.378 1.109,0.468 1.11,-0.168 1.109,1.102 1.109,1.277 1.11,0.289 1.109,0.774 1.113,0.957 1.11,1.41 1.097,1.461 1.114,2 1.109,0.09 1.109,0.289 1.11,0.371 1.109,-0.942 1.11,0.172 1.113,-0.468 1.109,-0.352 1.11,0.109 1.097,-0.148 1.114,-1 1.109,-0.051 1.109,0.262 1.11,-0.25 1.109,0.019 1.109,0.309 1.114,0.301 1.109,0.258 1.109,-0.5 1.098,-0.508 1.113,0.25 1.11,0.429 1.109,-0.671 1.11,-0.61 1.109,0.762 1.109,-0.609 1.114,-0.731 1.109,-0.371 1.109,-0.172 1.102,0.301 1.109,0.051 1.11,-1.309 1.109,-0.269 1.109,-0.032 1.11,-0.558 1.109,0.09 1.113,0.738 1.11,0.211 1.097,-0.43 1.114,0.25 1.109,-0.031 1.109,0.41 1.11,1.211 1.109,0.891 1.11,0.769 1.113,0.27 1.109,-0.719 1.11,0.406 1.097,0.613 1.114,0.508 1.109,0.02 1.109,0.07 1.11,-0.848 1.109,-0.16 1.109,-0.953 1.114,-0.918 1.109,0.641 1.109,-0.403 1.098,0.633 1.113,-0.551 1.11,-0.058 1.109,0.219 1.11,0.769 1.109,0.66 1.109,-0.25 1.114,0.352 1.109,0.84 1.109,0.148 1.102,-0.941 1.109,-1.078 1.11,0.078 1.109,-0.231 1.109,-0.109 1.11,0.812 1.109,0.329 1.113,0.89 1.11,-0.191 1.109,-0.598 1.102,-0.109 1.109,1.25 1.109,-0.442 1.11,-0.23 1.109,-0.801 1.11,-1.641 1.113,-2.386 1.109,-1.434 1.11,-1.379 1.109,-0.277 1.102,0.238 1.109,-0.23 1.109,-0.09 1.11,0.301 1.109,0.359 1.109,-0.129 1.114,1.309 1.109,0.55 1.109,0.84 1.11,1.289 1.101,0.219 1.11,0.41 1.109,0.102 1.11,0.422 1.109,0.179 1.109,0.368 1.114,1.589 1.109,0.622 1.109,0.031 1.11,0.008 1.101,-0.77 1.11,0.082 1.109,-0.359 1.109,0 1.11,0.398 1.109,0.442 1.113,-0.122 1.11,-0.371 1.109,0.231 1.11,0.07 1.101,0.129 1.109,0.051 1.11,0.832 1.109,-0.043 1.11,0.082 1.113,-1.063 1.109,-0.328 1.11,-0.32 1.109,-0.539 1.102,-0.672 1.109,0.133 1.109,-0.594 1.11,-0.348 1.109,-0.539 1.109,-0.589 1.114,-0.082 1.109,0.07 1.109,-0.231 1.11,0.18 1.101,0.531 1.11,0.621 1.109,0.75 1.11,1.739 1.109,0.511 1.109,0.09 1.114,0.91 1.109,0.039 1.109,0.559 1.11,0.641 1.101,-0.399 1.11,-0.429 1.109,-1.332 1.109,-2.008 1.11,-1.391 1.109,-0.293 1.113,-0.738 1.11,0.101 1.109,0.329 1.11,-0.559 1.101,0.09 1.109,0.277 1.11,1.32 1.109,1.172 1.11,2.039 1.113,0.602 1.109,0.168 1.11,0.09 1.109,-0.809 1.109,0.16 1.102,0.758 1.109,-0.879 1.11,0.09 1.109,-0.867 1.109,-0.141 1.114,-0.222 1.109,0.961 1.109,1.242 1.11,1.136 1.109,0.352 1.102,-0.379 1.109,0.559 1.11,0.48 1.109,0.078 1.109,-0.238 1.114,0.051 1.109,-0.539 1.109,-1.684 1.11,-0.957 1.109,-0.531 1.102,0.129 1.109,0.07 1.109,-0.687 1.11,0.507 1.109,0.2 1.113,0.281 1.11,0.039 1.109,0.199 1.11,0.391 1.109,0.281 1.101,-0.121 1.11,0.019 1.109,0.051 1.11,-0.211 1.113,-0.758 1.109,-0.839 1.11,-0.77 1.109,-0.223 1.109,0.133 1.11,0.098 1.101,-0.109 1.11,0.039 1.109,-0.547 1.109,-0.383 1.114,-0.258 1.109,0.289 1.109,0.61 1.11,0.371 1.109,-0.52 1.11,-0.551 1.101,-0.05 1.11,-0.122 1.109,0.192 1.109,0.59 1.114,0.679 1.109,0.653 1.109,0.476 1.11,0.532 1.109,0.691 1.102,0.828 1.109,-0.23 1.109,0.203 1.11,-0.082 1.109,0.031 1.113,-0.231 2.219,-0.539 1.11,-0.871 1.109,-0.601 1.101,-0.418 1.11,-0.09 1.109,0.527 1.11,-0.168 1.113,-0.218 1.109,-0.153 1.11,-0.07 1.109,-0.539 1.109,0.039 1.11,0.43 1.101,0.019 1.11,1.473"
       style="fill:none;stroke:#000000;stroke-width:0.75;stroke-linecap:round;stroke-linejoin:round;stroke-miterlimit:10;stroke-dasharray:none;stroke-opacity:1"
       id="path388"
       inkscape:connector-curvature="0" /><path
       inkscape:connector-curvature="0"
       id="path400"
       style="fill:none;stroke:#000000;stroke-width:0.75;stroke-linecap:round;stroke-linejoin:round;stroke-miterlimit:10;stroke-dasharray:0, 3;stroke-dashoffset:0;stroke-opacity:1"
       d="m 38.969,116.26198 742.582,0" /><path
       inkscape:connector-curvature="0"
       id="path412"
       style="fill:none;stroke:#ff0000;stroke-width:0.75;stroke-linecap:round;stroke-linejoin:round;stroke-miterlimit:10;stroke-dasharray:0, 3;stroke-dashoffset:0;stroke-opacity:1"
       d="m 38.969,94.78898 742.582,0" /><path
       inkscape:connector-curvature="0"
       id="path424"
       style="fill:none;stroke:#ff0000;stroke-width:0.75;stroke-linecap:round;stroke-linejoin:round;stroke-miterlimit:10;stroke-dasharray:0, 3;stroke-dashoffset:0;stroke-opacity:1"
       d="m 38.969,137.72998 742.582,0" /></g></svg>