<?xml version="1.0" encoding="UTF-8" standalone="no"?>
<!-- Created with Inkscape (http://www.inkscape.org/) -->

<svg
   xmlns:dc="http://purl.org/dc/elements/1.1/"
   xmlns:cc="http://creativecommons.org/ns#"
   xmlns:rdf="http://www.w3.org/1999/02/22-rdf-syntax-ns#"
   xmlns:svg="http://www.w3.org/2000/svg"
   xmlns="http://www.w3.org/2000/svg"
   xmlns:sodipodi="http://sodipodi.sourceforge.net/DTD/sodipodi-0.dtd"
   xmlns:inkscape="http://www.inkscape.org/namespaces/inkscape"
   id="svg2"
   version="1.1"
   inkscape:version="0.91 r13725"
   xml:space="preserve"
   width="14.679527cm"
   height="5.0333033cm"
   viewBox="0 0 520.14073 178.34539"
   sodipodi:docname="invitae.svg"><metadata
     id="metadata8"><rdf:RDF><cc:Work
         rdf:about=""><dc:format>image/svg+xml</dc:format><dc:type
           rdf:resource="http://purl.org/dc/dcmitype/StillImage" /><dc:title></dc:title></cc:Work></rdf:RDF></metadata><defs
     id="defs6" /><sodipodi:namedview
     pagecolor="#ffffff"
     bordercolor="#666666"
     borderopacity="1"
     objecttolerance="10"
     gridtolerance="10"
     guidetolerance="10"
     inkscape:pageopacity="0"
     inkscape:pageshadow="2"
     inkscape:window-width="1855"
     inkscape:window-height="1056"
     id="namedview4"
     showgrid="false"
     inkscape:zoom="1.4142136"
     inkscape:cx="319.47026"
     inkscape:cy="92.749258"
     inkscape:window-x="65"
     inkscape:window-y="24"
     inkscape:window-maximized="1"
     inkscape:current-layer="g10"
     inkscape:document-units="cm"
     units="cm"
     fit-margin-top="0.2"
     fit-margin-left="0.2"
     fit-margin-right="0.2"
     fit-margin-bottom="0.2"
     showguides="true"
     inkscape:guide-bbox="true" /><g
     id="g10"
     inkscape:groupmode="layer"
     inkscape:label="table"
     transform="matrix(1.25,0,0,-1.25,-160.12339,581.02216)"><rect
       style="opacity:1;fill:#ffd5d5;fill-opacity:1;stroke:none;stroke-width:1.20000005;stroke-miterlimit:10;stroke-dasharray:none;stroke-dashoffset:0;stroke-opacity:1"
       id="rect4286"
       width="76.9711"
       height="23.730204"
       x="400.05719"
       y="-445.71817"
       transform="scale(1,-1)" /><rect
       transform="scale(1,-1)"
       y="-422.0116"
       x="400.05719"
       height="23.051151"
       width="76.9711"
       id="rect4284"
       style="opacity:1;fill:#fff6d5;fill-opacity:1;stroke:none;stroke-width:1.20000005;stroke-miterlimit:10;stroke-dasharray:none;stroke-dashoffset:0;stroke-opacity:1" /><rect
       style="opacity:1;fill:#d5ffd5;fill-opacity:1;stroke:none;stroke-width:1.20000005;stroke-miterlimit:10;stroke-dasharray:none;stroke-dashoffset:0;stroke-opacity:1"
       id="rect4280"
       width="76.9711"
       height="71.969643"
       x="400.05719"
       y="-398.95578"
       transform="scale(1,-1)" /><rect
       transform="scale(1,-1)"
       y="-375.30325"
       x="477.03384"
       height="48.251381"
       width="61.46463"
       id="rect4278"
       style="opacity:1;fill:#d5ffd5;fill-opacity:1;stroke:none;stroke-width:1.20000005;stroke-miterlimit:10;stroke-dasharray:none;stroke-dashoffset:0;stroke-opacity:1" /><rect
       style="opacity:1;fill:#d5ffd5;fill-opacity:1;stroke:none;stroke-width:1.20000005;stroke-miterlimit:10;stroke-dasharray:none;stroke-dashoffset:0;stroke-opacity:1"
       id="rect4276"
       width="61.46463"
       height="11.821887"
       x="477.03384"
       y="-398.9751"
       transform="scale(1,-1)" /><rect
       transform="scale(1,-1)"
       y="-387.14108"
       x="477.03384"
       height="11.834387"
       width="61.46463"
       id="rect4274"
       style="opacity:1;fill:#ffd5d5;fill-opacity:1;stroke:none;stroke-width:1.20000005;stroke-miterlimit:10;stroke-dasharray:none;stroke-dashoffset:0;stroke-opacity:1" /><rect
       style="opacity:1;fill:#ffd5d5;fill-opacity:1;stroke:none;stroke-width:1.20000005;stroke-miterlimit:10;stroke-dasharray:none;stroke-dashoffset:0;stroke-opacity:1"
       id="rect4272"
       width="61.46463"
       height="46.811066"
       x="477.03384"
       y="-445.79382"
       transform="scale(1,-1)" /><text
       transform="matrix(1,0,0,-1,139.746,451.806)"
       style="font-style:normal;font-variant:normal;font-weight:normal;font-stretch:normal;font-size:9.96259975px;font-family:'TeX Gyre Schola';-inkscape-font-specification:'TeX Gyre Schola';writing-mode:lr-tb;fill:#000000;fill-opacity:1;fill-rule:nonzero;stroke:none"
       id="text12"><tspan
         x="0 6.6450543 11.626354 15.528705 18.296314 23.277615 28.533882 44.363457 53.496174 60.968124 89.15033 93.079575 98.614799 103.5961 107.49844 115.80028 119.72953 137.21986 139.98749 148.28932 153.82454 158.80583 162.70819 167.13556 185.15791 190.68317 194.58553 199.01289 202.3434 206.23578 210.67313 227.60954 235.21997 244.35269 261.83307 269.44351 278.5762 287.43893 291.86633 296.84763 299.61523 342.14359 344.91119 350.44641 355.98163 358.74924 363.17661 368.15793 372.03238 374.79999 379.78128"
         y="0"
         sodipodi:role="line"
         id="tspan14">VariantMAFsd/rmsdimp/regpre-regDMSDMScallindication</tspan></text>
<g
       id="g16"
       transform="translate(133.768,448.02)"><path
         d="M 0,0 404.774,0"
         style="fill:none;stroke:#000000;stroke-width:0.398;stroke-linecap:butt;stroke-linejoin:miter;stroke-miterlimit:10;stroke-dasharray:none;stroke-opacity:1"
         id="path18"
         inkscape:connector-curvature="0" /></g><g
       id="g20"
       transform="translate(133.768,446.027)"><path
         d="M 0,0 404.774,0"
         style="fill:none;stroke:#000000;stroke-width:0.398;stroke-linecap:butt;stroke-linejoin:miter;stroke-miterlimit:10;stroke-dasharray:none;stroke-opacity:1"
         id="path22"
         inkscape:connector-curvature="0" /></g><text
       transform="matrix(1,0,0,-1,139.746,437.46)"
       style="font-style:normal;font-variant:normal;font-weight:normal;font-stretch:normal;font-size:9.96259975px;font-family:'TeX Gyre Schola';-inkscape-font-specification:'TeX Gyre Schola';writing-mode:lr-tb;fill:#000000;fill-opacity:1;fill-rule:nonzero;stroke:none"
       id="text24"><tspan
         x="0 7.6104302 12.59173 17.57303 44.362461 51.834412 89.154312 94.135612 96.903221 101.88452 137.22186 139.98947 148.29131 153.82652 159.36176 163.23621 167.66359 185.15393 192.62587 227.60457 232.58586 235.35347 240.33478 261.83408 264.60168 267.36929 272.35855 276.78595 279.55356 288.12936 293.66458 298.64587 306.94769 311.92902 316.91031 319.67792 325.21313 342.14957 349.34454 354.32584 358.22821 363.76343 366.53104"
         y="0"
         sodipodi:role="line"
         id="tspan26">D94ANA0.26imputedNA0.46likelydamagingCardio</tspan><tspan
         x="0 7.6104302 12.59173 17.57303 44.362461 51.834412 89.154312 94.135612 96.903221 101.88452 137.22186 139.98947 148.29131 153.82652 159.36176 163.23621 167.66359 185.15393 192.62587 227.60457 232.58586 235.35347 240.33478 261.83408 264.60168 267.36929 272.35855 276.78595 279.55356 288.12936 293.66458 298.64587 306.94769 311.92902 316.91031 319.67792 325.21313 342.14957 349.34454 354.32584 358.22821 363.76343 366.53104"
         y="11.956"
         sodipodi:role="line"
         id="tspan28">D96HNA0.26imputedNA0.72likelydamagingCardio</tspan><tspan
         x="0 3.5974948 8.5787945 13.560095 44.364452"
         y="23.910999"
         sodipodi:role="line"
         id="tspan30">I28V1</tspan></text>
<text
       transform="matrix(1,0,0,-1,191.303,413.549)"
       style="font-style:normal;font-variant:normal;font-weight:normal;font-stretch:normal;font-size:9.96259975px;font-family:'TeX Gyre Schola';-inkscape-font-specification:'TeX Gyre Schola';writing-mode:lr-tb;fill:#000000;fill-opacity:1;fill-rule:nonzero;stroke:none"
       id="text32"><tspan
         x="0"
         y="0"
         id="tspan34"
         style="font-style:normal;font-variant:normal;font-weight:normal;font-stretch:normal;font-family:'TeX Gyre Schola';-inkscape-font-specification:'TeX Gyre Schola'">·</tspan></text>
<text
       transform="matrix(1,0,0,-1,196.284,413.549)"
       style="font-style:normal;font-variant:normal;font-weight:normal;font-stretch:normal;font-size:9.96259975px;font-family:'TeX Gyre Schola';-inkscape-font-specification:'TeX Gyre Schola';writing-mode:lr-tb;fill:#000000;fill-opacity:1;fill-rule:nonzero;stroke:none"
       id="text36"><tspan
         x="0 4.9812999"
         y="0"
         sodipodi:role="line"
         id="tspan38">10</tspan></text>
<text
       transform="matrix(1,0,0,-1,206.247,417.165)"
       style="font-style:normal;font-variant:normal;font-weight:normal;font-stretch:normal;font-size:6.97380018px;font-family:'TeX Gyre Schola';-inkscape-font-specification:'TeX Gyre Schola';writing-mode:lr-tb;fill:#000000;fill-opacity:1;fill-rule:nonzero;stroke:none"
       id="text40"><tspan
         x="0"
         y="0"
         id="tspan42"
         style="font-style:normal;font-variant:normal;font-weight:normal;font-stretch:normal;font-family:'TeX Gyre Schola';-inkscape-font-specification:'TeX Gyre Schola'">−</tspan></text>
<text
       transform="matrix(1,0,0,-1,212.473,417.165)"
       style="font-style:normal;font-variant:normal;font-weight:normal;font-stretch:normal;font-size:6.97380018px;font-family:'TeX Gyre Schola';-inkscape-font-specification:'TeX Gyre Schola';writing-mode:lr-tb;fill:#000000;fill-opacity:1;fill-rule:nonzero;stroke:none"
       id="text44"><tspan
         x="0"
         y="0"
         id="tspan46"
         style="font-style:normal;font-variant:normal;font-weight:normal;font-stretch:normal;font-family:'TeX Gyre Schola';-inkscape-font-specification:'TeX Gyre Schola'">5</tspan></text>
<text
       transform="matrix(1,0,0,-1,228.898,413.549)"
       style="font-style:normal;font-variant:normal;font-weight:normal;font-stretch:normal;font-size:9.96259975px;font-family:'TeX Gyre Schola';-inkscape-font-specification:'TeX Gyre Schola';writing-mode:lr-tb;fill:#000000;fill-opacity:1;fill-rule:nonzero;stroke:none"
       id="text48"><tspan
         x="0 4.9812999 7.7489104 12.73021 48.067551 56.369389 59.136997 61.904606 96.002602 100.9839 103.75151 108.73281 138.45125 143.43254 146.20016 151.18146 172.69072 178.21597 183.75119 188.17857 192.61591 196.5083 200.38275 205.36406 208.13167 252.99924 260.19421 265.17551 269.07788 274.6131 277.38071"
         y="0"
         sodipodi:role="line"
         id="tspan50">0.05mild0.880.88uncertainCardio</tspan><tspan
         x="-89.152 -81.680054 -76.698753 -71.717453 -44.792526 -37.320576 -0.00067764003 4.9806223 7.7482328 12.729532 48.066875 56.36871 59.136318 61.903931 96.001923 100.98322 103.75083 108.73213 138.45058 143.43187 146.19948 151.18079 172.69003 178.22525 183.75052 188.18785 192.61523 196.51758 200.39204 205.37334 208.14095 252.99855 260.19354 265.17484 269.07718 274.61243 277.38004"
         y="11.955"
         sodipodi:role="line"
         id="tspan52">N98SNA0.05mild0.890.89uncertainCardio</tspan><tspan
         x="-89.152 -81.957008 -76.975708 -71.994408 -44.795517"
         y="23.91"
         sodipodi:role="line"
         id="tspan54">T35I4</tspan></text>
<text
       transform="matrix(1,0,0,-1,191.303,389.639)"
       style="font-style:normal;font-variant:normal;font-weight:normal;font-stretch:normal;font-size:9.96259975px;font-family:'TeX Gyre Schola';-inkscape-font-specification:'TeX Gyre Schola';writing-mode:lr-tb;fill:#000000;fill-opacity:1;fill-rule:nonzero;stroke:none"
       id="text56"><tspan
         x="0"
         y="0"
         id="tspan58"
         style="font-style:normal;font-variant:normal;font-weight:normal;font-stretch:normal;font-family:'TeX Gyre Schola';-inkscape-font-specification:'TeX Gyre Schola'">·</tspan></text>
<text
       transform="matrix(1,0,0,-1,196.284,389.639)"
       style="font-style:normal;font-variant:normal;font-weight:normal;font-stretch:normal;font-size:9.96259975px;font-family:'TeX Gyre Schola';-inkscape-font-specification:'TeX Gyre Schola';writing-mode:lr-tb;fill:#000000;fill-opacity:1;fill-rule:nonzero;stroke:none"
       id="text60"><tspan
         x="0 4.9812999"
         y="0"
         sodipodi:role="line"
         id="tspan62">10</tspan></text>
<text
       transform="matrix(1,0,0,-1,206.247,393.254)"
       style="font-style:normal;font-variant:normal;font-weight:normal;font-stretch:normal;font-size:6.97380018px;font-family:'TeX Gyre Schola';-inkscape-font-specification:'TeX Gyre Schola';writing-mode:lr-tb;fill:#000000;fill-opacity:1;fill-rule:nonzero;stroke:none"
       id="text64"><tspan
         x="0"
         y="0"
         id="tspan66"
         style="font-style:normal;font-variant:normal;font-weight:normal;font-stretch:normal;font-family:'TeX Gyre Schola';-inkscape-font-specification:'TeX Gyre Schola'">−</tspan></text>
<text
       transform="matrix(1,0,0,-1,212.473,393.254)"
       style="font-style:normal;font-variant:normal;font-weight:normal;font-stretch:normal;font-size:6.97380018px;font-family:'TeX Gyre Schola';-inkscape-font-specification:'TeX Gyre Schola';writing-mode:lr-tb;fill:#000000;fill-opacity:1;fill-rule:nonzero;stroke:none"
       id="text68"><tspan
         x="0"
         y="0"
         id="tspan70"
         style="font-style:normal;font-variant:normal;font-weight:normal;font-stretch:normal;font-family:'TeX Gyre Schola';-inkscape-font-specification:'TeX Gyre Schola'">6</tspan></text>
<text
       transform="matrix(1,0,0,-1,228.898,389.639)"
       style="font-style:normal;font-variant:normal;font-weight:normal;font-stretch:normal;font-size:9.96259975px;font-family:'TeX Gyre Schola';-inkscape-font-specification:'TeX Gyre Schola';writing-mode:lr-tb;fill:#000000;fill-opacity:1;fill-rule:nonzero;stroke:none"
       id="text72"><tspan
         x="0 4.9812999 7.7489104 12.73021 48.067551 56.369389 59.136997 61.904606 96.002602 100.9839 103.75151 108.73281 138.45125 143.43254 146.20016 151.18146 172.69072 175.44836 178.21597 183.20525 187.63261 190.40022 198.97603 204.79021 209.21759 214.75281 217.52042 222.50172 252.99326 260.46521 265.4465 270.98172 274.30225 281.49725 286.47855 290.38089 295.91611 298.68372"
         y="0"
         sodipodi:role="line"
         id="tspan74">0.04mild0.930.93likelybenignNon-Cardio</tspan><tspan
         x="-89.152 -82.371452 -77.390152 -72.408852 -44.785553 -37.313602 -0.00366642 4.9776335 7.745244 12.726543 48.073849 56.375683 59.143295 61.910904 95.99894 100.98023 103.74785 108.72915 138.45755 143.43884 146.20645 151.18776 172.68704 175.45465 178.22226 183.20157 187.62895 190.39656 198.97237 204.78654 209.21393 214.74915 217.51675 222.49805 252.99954 260.19455 265.17584 269.07819 274.6134 277.38101"
         y="11.955"
         sodipodi:role="line"
         id="tspan76">E48GNA0.05mild0.930.93likelybenignCardio</tspan><tspan
         x="-89.152 -81.334351 -76.35305 -71.37175 -44.792526 -37.320576 -0.00067764003 4.9806223 7.7482328 12.729532 48.066875 56.36871 59.136318 61.903931 96.001923 100.98322 103.75083 108.73213 138.45058 143.43187 146.19948 151.18079 172.69003 175.45764 178.22525 183.20456 187.63194 190.39955 198.97536 204.78954 209.2169 214.75214 217.51974 222.50104 252.99257 260.46454 265.44583 270.98105 274.30157 281.49658 286.47787 290.38022 295.91544 298.68304"
         y="23.91"
         sodipodi:role="line"
         id="tspan78">G26DNA0.06mild0.940.94likelybenignNon-Cardio</tspan><tspan
         x="-89.152 -81.957008 -76.975708 -71.994408 -44.790535"
         y="35.866001"
         sodipodi:role="line"
         id="tspan80">T27S3</tspan></text>
<text
       transform="matrix(1,0,0,-1,191.303,353.773)"
       style="font-style:normal;font-variant:normal;font-weight:normal;font-stretch:normal;font-size:9.96259975px;font-family:'TeX Gyre Schola';-inkscape-font-specification:'TeX Gyre Schola';writing-mode:lr-tb;fill:#000000;fill-opacity:1;fill-rule:nonzero;stroke:none"
       id="text82"><tspan
         x="0"
         y="0"
         id="tspan84"
         style="font-style:normal;font-variant:normal;font-weight:normal;font-stretch:normal;font-family:'TeX Gyre Schola';-inkscape-font-specification:'TeX Gyre Schola'">·</tspan></text>
<text
       transform="matrix(1,0,0,-1,196.284,353.773)"
       style="font-style:normal;font-variant:normal;font-weight:normal;font-stretch:normal;font-size:9.96259975px;font-family:'TeX Gyre Schola';-inkscape-font-specification:'TeX Gyre Schola';writing-mode:lr-tb;fill:#000000;fill-opacity:1;fill-rule:nonzero;stroke:none"
       id="text86"><tspan
         x="0 4.9812999"
         y="0"
         sodipodi:role="line"
         id="tspan88">10</tspan></text>
<text
       transform="matrix(1,0,0,-1,206.247,357.389)"
       style="font-style:normal;font-variant:normal;font-weight:normal;font-stretch:normal;font-size:6.97380018px;font-family:'TeX Gyre Schola';-inkscape-font-specification:'TeX Gyre Schola';writing-mode:lr-tb;fill:#000000;fill-opacity:1;fill-rule:nonzero;stroke:none"
       id="text90"><tspan
         x="0"
         y="0"
         id="tspan92"
         style="font-style:normal;font-variant:normal;font-weight:normal;font-stretch:normal;font-family:'TeX Gyre Schola';-inkscape-font-specification:'TeX Gyre Schola'">−</tspan></text>
<text
       transform="matrix(1,0,0,-1,212.473,357.389)"
       style="font-style:normal;font-variant:normal;font-weight:normal;font-stretch:normal;font-size:6.97380018px;font-family:'TeX Gyre Schola';-inkscape-font-specification:'TeX Gyre Schola';writing-mode:lr-tb;fill:#000000;fill-opacity:1;fill-rule:nonzero;stroke:none"
       id="text94"><tspan
         x="0"
         y="0"
         id="tspan96"
         style="font-style:normal;font-variant:normal;font-weight:normal;font-stretch:normal;font-family:'TeX Gyre Schola';-inkscape-font-specification:'TeX Gyre Schola'">5</tspan></text>
<text
       transform="matrix(1,0,0,-1,228.898,353.773)"
       style="font-style:normal;font-variant:normal;font-weight:normal;font-stretch:normal;font-size:9.96259975px;font-family:'TeX Gyre Schola';-inkscape-font-specification:'TeX Gyre Schola';writing-mode:lr-tb;fill:#000000;fill-opacity:1;fill-rule:nonzero;stroke:none"
       id="text98"><tspan
         x="0 4.9812999 7.7489104 12.73021 48.067551 56.369389 59.136997 61.904606 96.002602 100.9839 103.75151 108.73281 138.45125 143.43254 146.20016 151.18146 172.69072 175.44836 178.21597 183.20525 187.63261 190.40022 198.97603 204.79021 209.21759 214.75281 217.52042 222.50172 252.99326 260.46521 265.4465 270.98172 274.30225 281.49725 286.47855 290.38089 295.91611 298.68372"
         y="0"
         sodipodi:role="line"
         id="tspan100">0.05mild0.960.96likelybenignNon-Cardio</tspan><tspan
         x="-89.152 -81.680054 -76.698753 -71.717453 -66.736153 -44.788544 -37.316593 0.0033074 4.9846072 7.7522178 12.733518 48.070858 56.372696 59.140305 61.907913 96.005913 100.98721 103.74486 108.72616 138.45456 143.43585 146.20346 151.18477 172.68405 175.45166 178.21928 183.19858 187.62596 190.39357 198.97934 204.78355 209.21094 214.74615 217.51376 222.49507 252.99657 260.46851 265.4498 270.98505 274.30557 281.50055 286.48184 290.38422 295.91943 298.68704"
         y="11.955"
         sodipodi:role="line"
         id="tspan102">V122ANA0.05mild0.980.98likelybenignNon-Cardio</tspan><tspan
         x="-89.152 -81.680054 -76.698753 -71.717453 -66.736153 -44.791531 -37.31958 0.00031862 4.9816184 7.749229 12.730529 48.067871 56.369705 59.137318 61.904926 96.002922 100.98422 103.75183 108.73313 138.45157 143.43286 146.20047 151.18178 172.68106 175.44868 178.21629 183.20557 187.63293 190.40054 198.97635 204.79053 209.21791 214.75313 217.52074 222.50204 252.99358 260.46552 265.44681 270.98206 274.30258 281.49756 286.47888 290.38123 295.91644 298.68405"
         y="23.91"
         sodipodi:role="line"
         id="tspan104">A104GNA0.08mild1.001.00likelybenignNon-Cardio</tspan><tspan
         x="74.235001"
         y="264.40799"
         id="tspan106"
         style="font-style:normal;font-variant:normal;font-weight:normal;font-stretch:normal;font-family:'TeX Gyre Schola';-inkscape-font-specification:'TeX Gyre Schola'" /></text>
</g></svg>